<svg xmlns="http://www.w3.org/2000/svg" width="32" height="32" viewBox="0 0 32 32">
  <path fill="#68737A" fill-rule="evenodd" d="M16,1 C24.837,1 32,6.82 32,14 C32,21.18 24.837,27 16,27 C15.151,27 14.318,26.946 13.505,26.842 C10.068,30.279 5.966,30.895 2,30.986 L2,30.145 C4.142,29.096 6,27.184 6,25 C6,24.695 5.976,24.396 5.932,24.103 C2.313,21.72 -1.77635684e-15,18.079 -1.77635684e-15,14 C-1.77635684e-15,6.82 7.163,1 16,1 Z M23,16 C24.1045695,16 25,15.1045695 25,14 C25,12.8954305 24.1045695,12 23,12 C21.8954305,12 21,12.8954305 21,14 C21,15.1045695 21.8954305,16 23,16 Z M16,16 C17.1045695,16 18,15.1045695 18,14 C18,12.8954305 17.1045695,12 16,12 C14.8954305,12 14,12.8954305 14,14 C14,15.1045695 14.8954305,16 16,16 Z M9,16 C10.1045695,16 11,15.1045695 11,14 C11,12.8954305 10.1045695,12 9,12 C7.8954305,12 7,12.8954305 7,14 C7,15.1045695 7.8954305,16 9,16 Z"/>
</svg>
