<?xml version="1.0" encoding="UTF-8"?>
<svg width="32px" height="32px" viewBox="0 0 32 32" version="1.1" xmlns="http://www.w3.org/2000/svg" xmlns:xlink="http://www.w3.org/1999/xlink">
    <!-- Generator: Sketch 40.3 (33839) - http://www.bohemiancoding.com/sketch -->
    <title>medium</title>
    <desc>Created with Sketch.</desc>
    <defs></defs>
    <g id="Page-1" stroke="none" stroke-width="1" fill="none" fill-rule="evenodd">
        <g id="medium" transform="translate(0.000000, 2.000000)" fill="#9EABB3">
            <path d="M31.6495094,4.92890566 C31.6434717,4.92407547 31.6386415,4.91773585 31.6310943,4.91411321 L31.6202264,4.90867925 L22.0896604,0.143396226 C22.0253585,0.11109434 21.9577358,0.0893584906 21.8892075,0.0718490566 C21.8031698,0.0498113208 21.7153208,0.0362264151 21.6271698,0.0362264151 C21.2621887,0.0362264151 20.8990189,0.219471698 20.7021887,0.538867925 L15.2153962,9.45539623 L22.1011321,20.6445283 L31.6787925,5.0810566 C31.7104906,5.02913208 31.6953962,4.96513208 31.6495094,4.92890566" id="Fill-53"></path>
            <polyline id="Fill-54" points="12.1932075 7.42430189 12.1932075 17.5740377 21.2147925 22.0848302 12.1932075 7.42430189"></polyline>
            <path d="M22.5702642,22.762566 L29.9963774,26.4754717 C30.962717,26.9587925 31.7461132,26.6203774 31.7461132,25.7201509 L31.7461132,7.85177358 L22.5702642,22.762566" id="Fill-55"></path>
            <path d="M10.6270189,4.94339623 L1.3189434,0.289207547 C1.15079245,0.205283019 0.990792453,0.165433962 0.845886792,0.165433962 C0.438339623,0.165433962 0.15245283,0.48090566 0.15245283,1.01011321 L0.15245283,21.106717 C0.15245283,21.6446792 0.546113208,22.2816604 1.02732075,22.5222642 L9.22566038,26.621283 C9.43577358,26.7263396 9.63592453,26.7761509 9.81675472,26.7761509 C10.3263396,26.7761509 10.6837736,26.3818868 10.6837736,25.7201509 L10.6837736,5.03486792 C10.6837736,4.99622642 10.6617358,4.96060377 10.6270189,4.94339623" id="Fill-56"></path>
        </g>
    </g>
</svg>