<svg width="512" height="512" viewBox="0 0 512 512" fill="none" xmlns="http://www.w3.org/2000/svg">
<path d="M448.756 304.441C450.024 304.335 451.297 304.233 452.57 304.213C456.213 304.154 459.911 305.699 462.479 308.271C464.247 310.044 465.528 312.262 466.684 314.465C474.103 328.624 480.203 343.696 487.055 358.16L501.115 387.983C504.095 394.202 507.462 400.413 510.069 406.789C511.069 409.236 512.005 411.786 512 414.462C511.985 420.436 504.529 436.006 500.18 440.266C498.271 442.136 495.949 443.325 493.344 443.894C487.617 445.143 480.822 444.446 474.941 444.426L447.144 444.413C438.004 444.461 399.977 445.525 394.407 443.07C393.941 442.86 393.485 442.627 393.042 442.373C392.597 442.118 392.167 441.843 391.75 441.546C391.334 441.249 390.933 440.931 390.548 440.594C390.162 440.258 389.794 439.903 389.443 439.53C389.094 439.157 388.763 438.768 388.45 438.361C388.139 437.956 387.848 437.536 387.577 437.101C387.308 436.666 387.06 436.22 386.833 435.761C386.607 435.302 386.404 434.833 386.225 434.353C385.011 431.14 385.256 427.818 386.221 424.57C388.085 418.296 393.677 408.449 396.644 402.221L418.861 354.858C422.831 346.302 426.859 337.773 430.944 329.27C433.766 323.252 436.857 314.51 440.924 309.477C442.999 306.909 445.727 305.562 448.756 304.441Z" fill="black"/>
<path d="M366.895 67.2617C367.816 67.1579 368.744 67.061 369.673 67.0415C373.482 66.9619 377.513 68.0829 380.279 70.8097C382.11 72.6123 383.525 75.2789 384.719 77.5563C393.205 93.7519 400.374 110.902 408.159 127.465L421.433 155.704C423.851 160.835 426.56 165.989 428.647 171.258C429.457 173.304 430.072 175.571 430.092 177.786C430.118 180.642 428.443 184.029 427.311 186.617C420.281 202.682 412.43 218.443 404.942 234.303L368.657 311.528L330.273 393.288C323.907 406.872 317.862 420.678 311.166 434.097C309.991 436.452 308.677 438.643 306.785 440.507C304.936 442.33 302.627 443.203 300.109 443.716C294.117 444.933 287.366 444.415 281.266 444.42L253.513 444.428C244.402 444.5 206.755 445.523 200.767 442.702C200.289 442.473 199.823 442.22 199.37 441.945C198.916 441.668 198.478 441.37 198.056 441.05C197.632 440.73 197.226 440.389 196.838 440.029C196.449 439.668 196.079 439.288 195.729 438.889C195.378 438.491 195.048 438.077 194.739 437.646C194.43 437.215 194.144 436.769 193.879 436.31C193.615 435.849 193.374 435.377 193.157 434.892C192.939 434.408 192.747 433.915 192.58 433.412C191.331 429.769 192.234 426.298 193.581 422.833C198.701 409.668 205.807 396.814 211.773 383.975L254.721 292.478L310.297 174.389L339.831 111.423C344.884 100.677 349.711 89.7773 354.996 79.1467C357.89 73.3234 360.447 69.4432 366.895 67.2617Z" fill="black"/>
<path d="M178.699 307.311C164.44 337.053 150.345 366.873 136.416 396.77C133.018 404.004 129.499 411.173 126.195 418.449C123.516 424.351 121.079 430.671 117.794 436.247C116.213 438.926 114.425 441.53 111.455 442.71C108.907 443.72 106.1 444.155 103.376 444.328C89.4011 445.212 72.378 444.444 58.0899 444.446L30.5476 444.385C25.4149 444.372 20.1247 444.617 15.0087 444.205C12.7129 444.02 10.4801 443.577 8.36957 442.634C4.77114 441.028 2.22889 438.267 0.844732 434.59C-1.25281 429.013 0.93738 423.591 3.26284 418.42C15.4497 391.328 28.6539 364.571 41.3077 337.686L110.084 191.375L142.701 121.948C147.265 111.93 151.935 101.962 156.712 92.0445C159.296 86.5535 161.683 80.7196 164.694 75.453C166.564 72.1827 169.236 69.1863 172.854 67.8709C176.477 66.5549 180.896 66.7346 184.382 68.381C187.359 69.7863 189.394 72.0409 191.062 74.8209C195.005 81.393 197.942 88.9486 201.173 95.9007L219.113 134.386C222.455 141.602 225.872 148.781 229.366 155.925C232.014 161.303 235.077 166.739 237.065 172.402C238.282 175.87 238.014 178.542 236.974 182.065C234.25 191.295 228.18 201.676 223.998 210.453L202.522 256.282L191.475 279.845L190.256 282.422L186.149 291.279L183.224 297.507C181.68 300.759 180.109 304 178.699 307.311Z" fill="black"/>
</svg>
