<svg width="100" height="38" viewBox="0 0 100 38" xmlns="http://www.w3.org/2000/svg"><defs><linearGradient x1="71.354%" y1="4.554%" x2="28.924%" y2="94.011%" id="a"><stop stop-color="#09B5FB" offset="0%"/><stop stop-color="#2B76E0" offset="100%"/></linearGradient></defs><path d="M91.732 0c-1.887 0-3.71.654-5.165 1.848-.13.093-.252.196-.37.312l-7.222 7.223v-1.27C78.958 3.64 75.305 0 70.833 0c-1.9 0-3.737.665-5.2 1.875-.115.086-.227.182-.33.285l-7.226 7.224v-1.27C58.065 3.64 54.413 0 49.937 0c-1.893 0-3.72.657-5.176 1.855-.123.09-.242.193-.356.305l-7.22 7.222V8.11C37.162 3.64 33.51 0 29.042 0c-1.886 0-3.704.65-5.157 1.84-.133.095-.26.202-.38.32L2.185 23.48c-.095.097-.185.2-.265.306C.68 25.258 0 27.114 0 29.04c0 4.49 3.653 8.14 8.142 8.14 1.927 0 3.78-.678 5.248-1.916.11-.082.212-.172.31-.27l7.198-7.198v1.243c0 4.487 3.653 8.14 8.143 8.14 1.92 0 3.766-.676 5.23-1.905.116-.085.227-.18.33-.282l7.194-7.197v1.242c0 4.488 3.653 8.14 8.14 8.14 1.928 0 3.78-.678 5.244-1.913.11-.084.216-.174.316-.274l7.197-7.197v1.242c0 4.49 3.653 8.14 8.14 8.14 1.93 0 3.787-.68 5.257-1.92.107-.08.208-.17.304-.265l21.315-21.315c.114-.112.217-.234.31-.362 1.197-1.456 1.855-3.282 1.855-5.176C99.87 3.65 96.22 0 91.73 0zm3.918 11.61l-.223.223-.002.003L74.33 32.93l-.006-.002c-.927.83-2.147 1.335-3.49 1.335-2.887 0-5.225-2.34-5.225-5.224v-8.29L53.43 32.93l-.007-.003c-.922.83-2.146 1.334-3.488 1.334-2.885 0-5.225-2.336-5.225-5.22v-8.29L32.535 32.93l-.01-.004c-.924.83-2.146 1.334-3.485 1.334-2.888 0-5.226-2.338-5.226-5.224V20.75l-12.18 12.178-.006-.003c-.925.83-2.148 1.334-3.488 1.334-2.884 0-5.225-2.34-5.225-5.226 0-1.342.506-2.563 1.335-3.49l-.004-.006 21.32-21.32.01.006c.922-.816 2.13-1.312 3.463-1.312 2.875 0 5.21 2.328 5.222 5.205v8.303l12.2-12.203.008.006c.922-.816 2.136-1.312 3.464-1.312 2.88 0 5.215 2.33 5.223 5.206v8.303l12.207-12.2.004.006c.924-.816 2.138-1.312 3.463-1.312 2.88 0 5.217 2.328 5.227 5.205v8.302L88.26 4.22l.008.006c.923-.816 2.134-1.312 3.462-1.312 2.884 0 5.223 2.34 5.223 5.223 0 1.33-.497 2.542-1.312 3.463l.01.01z" fill="url(#a)" fill-rule="evenodd"/></svg>