<?xml version="1.0" standalone="no"?>
<!DOCTYPE svg PUBLIC "-//W3C//DTD SVG 1.1//EN" "http://www.w3.org/Graphics/SVG/1.1/DTD/svg11.dtd" >
<svg xmlns="http://www.w3.org/2000/svg">
<metadata>
Created by FontPrep 20130207 at Wed Feb 19 16:04:45 2014
 By Michael Novotny
Copyright (c) 1981, 2002 Heidelberger Druckmaschinen AG. All rights reserved.
</metadata>
<defs>
<font id="41b483a81981df94d5e7475837c9ee2c" horiz-adv-x='1024' >
  <font-face 
    font-family="DINCondensed-Bold"
    font-weight="700"
    font-stretch="condensed"
    units-per-em="2048"
    panose-1="0 0 5 0 0 0 0 0 0 0"
    ascent="1458"
    descent="-590"
    x-height="1038"
    cap-height="1458"
    bbox="-338 -512 2048 1919"
    underline-thickness="102"
    underline-position="-102"
    unicode-range="U+0020-FB02"
  />
<missing-glyph horiz-adv-x="1024" 
d="M102 195l349 522l-349 522v-1044zM860 102l-348 523l-348 -523h696zM922 195v1044l-349 -522zM860 1331h-696l348 -522zM0 1434h1024v-1434h-1024v1434z" />
    <glyph glyph-name=".notdef" horiz-adv-x="1024" 
d="M102 195l349 522l-349 522v-1044zM860 102l-348 523l-348 -523h696zM922 195v1044l-349 -522zM860 1331h-696l348 -522zM0 1434h1024v-1434h-1024v1434z" />
    <glyph glyph-name=".null" horiz-adv-x="0" 
 />
    <glyph glyph-name="nonmarkingreturn" horiz-adv-x="681" 
 />
    <glyph glyph-name="space" unicode=" " horiz-adv-x="380" 
 />
    <glyph glyph-name="exclam" unicode="!" horiz-adv-x="491" 
d="M141 209h209v-209h-209v209zM115 1458h262l-80 -1098h-102z" />
    <glyph glyph-name="quotedbl" unicode="&#x22;" horiz-adv-x="569" 
d="M338 1458h164v-360h-164v360zM68 1458h163v-360h-163v360z" />
    <glyph glyph-name="numbersign" unicode="#" horiz-adv-x="761" 
d="M489 895h-172l-45 -332h172zM12 440v123h121l45 332h-102v123h119l59 440h139l-59 -440h172l59 440h140l-60 -440h105v-123h-121l-45 -332h102v-123h-119l-59 -440h-139l59 440h-172l-59 -440h-140l60 440h-105z" />
    <glyph glyph-name="dollar" unicode="$" horiz-adv-x="761" 
d="M739 416q0 -400 -305 -428v-172h-104v172q-135 16 -221 110t-86 232v82h208v-74q0 -47 22.5 -88t76.5 -53v471l-70 28q-135 55 -181 146.5t-46 237.5t73.5 258t223.5 132v154h104v-154q135 -15 220 -112.5t85 -216.5v-103h-209v47q0 146 -96 177v-412l86 -35
q133 -51 176 -139t43 -260zM511.5 560.5q-18.5 37.5 -77.5 62.5v-426q66 16 81 71.5t15 154.5q0 100 -18.5 137.5zM242 1069q0 -70 14 -107.5t74 -66.5v367q-53 -20 -70.5 -71.5t-17.5 -121.5z" />
    <glyph glyph-name="percent" unicode="%" horiz-adv-x="720" 
d="M543 1458h135l-500 -1458h-135zM528.5 -12q-79.5 0 -127 43t-47.5 112v133q0 78 47.5 123t127 45t126.5 -45t47 -123v-133q0 -70 -47 -112.5t-126.5 -42.5zM477 164q0 -23 15.5 -38t36 -15t36 15t15.5 38v104q0 23 -15.5 38.5t-36 15.5t-36 -15.5t-15.5 -38.5v-104z
M192.5 1014q-79.5 0 -127 43t-47.5 112v134q0 78 47.5 122.5t127 44.5t127 -45t47.5 -122v-134q0 -70 -47.5 -112.5t-127 -42.5zM192.5 1137q20.5 0 36 15t15.5 38v104q0 23 -15.5 38.5t-36 15.5t-36 -15.5t-15.5 -38.5v-104q0 -23 15.5 -38t36 -15z" />
    <glyph glyph-name="ampersand" unicode="&#x26;" horiz-adv-x="985" 
d="M332 1018q0 -65 80 -193q57 57 78.5 90t34 67t12.5 73t-27 71.5t-74 32.5t-75.5 -38t-28.5 -103zM258 336q0 -76 44 -130t102 -54t100.5 29.5t64.5 58.5l-200 319q-111 -111 -111 -223zM653 111q-123 -123 -264 -123t-228 93.5t-87 229.5t57 226t143 168
q-127 180 -127 318t74 219t207 81q132 0 206.5 -76.5t74.5 -187.5q0 -174 -213 -367q39 -59 89 -143t103 -162l113 154l129 -90l-156 -201l158 -250h-209z" />
    <glyph glyph-name="quotesingle" unicode="'" horiz-adv-x="380" 
d="M109 1458h163v-360h-163v360z" />
    <glyph glyph-name="parenleft" unicode="(" horiz-adv-x="454" 
d="M311 569q0 -388 105 -774h-70q-176 254 -210 493.5t-34 341.5q0 213 66 435.5t178 392.5h70q-105 -376 -105 -889z" />
    <glyph glyph-name="parenright" unicode=")" horiz-adv-x="454" 
d="M143 684q0 392 -104 774h70q179 -264 211 -498.5t32 -335.5q0 -211 -65 -434.5t-178 -394.5h-70q104 372 104 889z" />
    <glyph glyph-name="asterisk" unicode="*" 
d="M121 1343l201 -122l-9 237h131l-8 -237l201 122l57 -106l-205 -115l205 -112l-57 -109l-201 123l8 -238h-131l9 238l-201 -123l-58 109l205 112l-205 115z" />
    <glyph glyph-name="plus" unicode="+" horiz-adv-x="1228" 
d="M532 1036h164v-436h437v-164h-437v-436h-164v436h-436v164h436v436z" />
    <glyph glyph-name="comma" unicode="," horiz-adv-x="380" 
d="M86 209h209v-209l-209 -152v361z" />
    <glyph glyph-name="hyphen" unicode="-" horiz-adv-x="796" 
d="M90 672h617v-209h-617v209z" />
    <glyph glyph-name="period" unicode="." horiz-adv-x="380" 
d="M86 209h209v-209h-209v209z" />
    <glyph glyph-name="slash" unicode="/" horiz-adv-x="454" 
d="M281 1470h163l-270 -1482h-164z" />
    <glyph glyph-name="zero" unicode="0" horiz-adv-x="761" 
d="M279 301q0 -45 28.5 -74.5t73.5 -29.5t73.5 29.5t28.5 74.5v856q0 45 -28.5 75t-73.5 30t-73.5 -30t-28.5 -75v-856zM70 1157q0 141 91.5 227t219.5 86t219.5 -86t91.5 -227v-856q0 -139 -91 -226t-220 -87t-220 87t-91 226v856z" />
    <glyph glyph-name="one" unicode="1" horiz-adv-x="761" 
d="M526 1458v-1458h-209v1237l-208 -154v222l208 153h209z" />
    <glyph glyph-name="two" unicode="2" horiz-adv-x="761" 
d="M466 1219q-17 43 -75 43q-112 0 -112 -105v-119h-209v115q0 130 91.5 223.5t234.5 93.5t219.5 -104.5t76.5 -260.5t-22.5 -206.5t-46.5 -97.5l-308 -592h377v-209h-622v197l376 710q29 53 33 93t4 108t-17 111z" />
    <glyph glyph-name="three" unicode="3" horiz-adv-x="761" 
d="M317 844q94 0 130 22.5t36 104.5v188q0 45 -27.5 74t-78.5 29t-74.5 -35t-23.5 -68v-119h-209v121q0 131 93 220t222 89q86 0 142.5 -33.5t80.5 -63.5q52 -64 68 -124.5t16 -163.5q0 -102 -3 -149t-16.5 -79t-39 -54.5t-70.5 -48.5q49 -31 75 -57.5t40 -68.5t14 -161
q0 -181 -11 -238.5t-47 -110.5q-88 -130 -255 -130q-197 0 -253 112.5t-56 198.5v119h209v-109q0 -49 27.5 -80.5t74.5 -31.5t74.5 31.5t27.5 84.5v209q0 84 -31.5 110.5t-134.5 26.5v185z" />
    <glyph glyph-name="four" unicode="4" horiz-adv-x="761" 
d="M434 217h-416v197l301 1044h222l-314 -1044h207v415h209v-415h100v-197h-100v-217h-209v217z" />
    <glyph glyph-name="five" unicode="5" horiz-adv-x="761" 
d="M453 936q106 0 172.5 -65.5t66.5 -192.5v-377q0 -139 -91 -226t-220 -87t-220 87t-91 226v61h209v-53q0 -53 29.5 -82.5t76.5 -29.5t72.5 28.5t25.5 79.5v342q0 43 -27.5 74t-62.5 31t-53 -9.5t-30.5 -21.5t-19.5 -26.5t-11 -22.5h-185v786h598v-196h-413v-394
q68 68 174 68z" />
    <glyph glyph-name="six" unicode="6" horiz-adv-x="761" 
d="M483 571q0 47 -30.5 76t-71.5 29t-71.5 -29t-30.5 -76v-270q0 -47 30.5 -75.5t71.5 -28.5t71.5 28.5t30.5 75.5v270zM684 236q-8 -52 -44 -114q-36 -61 -104.5 -97.5t-198.5 -36.5t-218 141q-32 50 -40.5 104t-8.5 158q0 160 7 213.5t32 120.5l274 733h233l-237 -612
l4 -4q23 18 83 18t107.5 -26.5t67.5 -58.5q34 -54 42.5 -116.5t8.5 -216.5t-8 -206z" />
    <glyph glyph-name="seven" unicode="7" horiz-adv-x="761" 
d="M254 1262v-168h-184v364h622v-209l-354 -1249h-221l366 1262h-229z" />
    <glyph glyph-name="eight" unicode="8" horiz-adv-x="761" 
d="M483 586q0 43 -30.5 72.5t-71.5 29.5t-71.5 -29.5t-30.5 -72.5v-287q0 -43 30.5 -72.5t71.5 -29.5t71.5 29.5t30.5 72.5v287zM85.5 1246q15.5 52 57.5 109q87 115 236.5 115t236.5 -112q46 -62 61 -113t15 -143q0 -166 -15.5 -220.5t-88.5 -115.5q73 -57 88.5 -118.5
t15.5 -184.5q0 -178 -10.5 -234.5t-45.5 -110.5q-36 -54 -99.5 -92t-155.5 -38t-155.5 37t-89.5 77q-46 72 -56 128t-10 158q0 199 15.5 260t88.5 118q-73 61 -88.5 115.5t-15.5 183.5t15.5 181zM483 1159q0 43 -30.5 73t-71.5 30t-71.5 -30t-30.5 -73v-213
q0 -43 30.5 -72.5t71.5 -29.5t71.5 29.5t30.5 72.5v213z" />
    <glyph glyph-name="nine" unicode="9" horiz-adv-x="761" 
d="M279 887q0 -47 30.5 -76t71.5 -29t71.5 29t30.5 76v270q0 47 -30.5 76t-71.5 29t-71.5 -29t-30.5 -76v-270zM296 598q-60 0 -107.5 27t-67.5 57q-33 51 -42 116.5t-9 185.5q0 187 8.5 242.5t44.5 112.5q35 58 103.5 94.5t198.5 36.5t218 -141q34 -60 41.5 -109.5
t7.5 -152.5q0 -165 -9 -221.5t-30 -112.5l-274 -733h-234l238 612l-4 4q-23 -18 -83 -18z" />
    <glyph glyph-name="colon" unicode=":" horiz-adv-x="380" 
d="M86 674h209v-209h-209v209zM86 209h209v-209h-209v209z" />
    <glyph glyph-name="semicolon" unicode=";" horiz-adv-x="380" 
d="M86 674h209v-209h-209v209zM86 209h209v-209l-209 -152v361z" />
    <glyph glyph-name="less" unicode="&#x3c;" horiz-adv-x="1228" 
d="M1133 889l-814 -371l814 -371v-163l-1037 473v123l1037 473v-164z" />
    <glyph glyph-name="equal" unicode="=" horiz-adv-x="1228" 
d="M96 395h1037v-164h-1037v164zM96 805h1037v-164h-1037v164z" />
    <glyph glyph-name="greater" unicode="&#x3e;" horiz-adv-x="1228" 
d="M96 147l813 371l-813 371v164l1037 -473v-123l-1037 -473v163z" />
    <glyph glyph-name="question" unicode="?" 
d="M274 209h209v-209h-209v209zM66 1159q0 130 92.5 220.5t235.5 90.5t229 -116q42 -61 55.5 -107.5t13.5 -120.5q0 -133 -7 -180t-26 -76l-141 -241q-35 -62 -35 -105v-164h-209v191q0 78 52 166l131 213q26 44 26 119v108q0 43 -29.5 74t-69.5 31t-75 -27t-35 -78v-119
h-208v121z" />
    <glyph glyph-name="at" unicode="@" horiz-adv-x="1638" 
d="M1126 285q-143 0 -159 129h-4q-57 -62 -110.5 -95.5t-129.5 -33.5q-140 0 -221.5 90t-81.5 206q0 115 34.5 215.5t97 180.5t151 130t178.5 50q195 0 254 -160h4l41 125h129l-179 -563q-20 -58 -20 -92q0 -59 48 -59t97.5 40.5t115 147.5t65.5 232q0 230 -163 368.5
t-386 138.5q-129 0 -242 -51t-196.5 -135t-132 -195.5t-48.5 -233.5t48.5 -231.5t183 -237.5t397.5 -128q141 0 278.5 60t219.5 155h157q-97 -163 -278 -256.5t-367 -93.5t-326.5 56t-245 155.5t-164.5 236.5t-60 294t61 291t166.5 234.5t247.5 157.5t292 57
q301 0 508 -173.5t207 -438.5q0 -129 -48 -234.5t-119.5 -180t-152.5 -116.5t-147 -42zM1051 846q0 66 -39 115t-110 49q-131 0 -224.5 -132t-93.5 -268q0 -86 46 -132t114 -46t122 41t94.5 101.5t65.5 133t25 138.5z" />
    <glyph glyph-name="A" unicode="A" horiz-adv-x="833" 
d="M330 1458h174l325 -1458h-208l-62 313h-285l-61 -313h-209zM418 1038h-4l-103 -528h209z" />
    <glyph glyph-name="B" unicode="B" horiz-adv-x="872" 
d="M307 860h94q104 0 140.5 52.5t36.5 151.5t-40 148.5t-145 49.5h-86v-402zM307 209h90q162 0 171.5 96.5t9.5 150.5q0 118 -36.5 169t-142.5 51h-92v-467zM98 1458h305q189 0 280 -104.5t91 -263.5v-54q0 -152 -54 -201t-89 -69q74 -35 108.5 -103.5t34.5 -183.5v-82
q0 -193 -93 -295t-298 -102h-285v1458z" />
    <glyph glyph-name="C" unicode="C" horiz-adv-x="833" 
d="M295 346q0 -149 127 -149q85 0 108 52t23 95v72h209v-90q0 -139 -97.5 -238.5t-234.5 -99.5q-225 0 -284.5 121.5t-59.5 222.5v803q0 145 95 240t243 95t243 -97.5t95 -250.5v-82h-209v70q0 61 -35.5 106.5t-103.5 45.5t-93.5 -48.5t-25.5 -121.5v-746z" />
    <glyph glyph-name="D" unicode="D" horiz-adv-x="872" 
d="M307 197h96q88 0 125 44t37 138v702q0 86 -34.5 133.5t-127.5 47.5h-96v-1065zM98 1458h310q178 0 272 -99t94 -278v-682q0 -205 -99.5 -302t-285.5 -97h-291v1458z" />
    <glyph glyph-name="E" unicode="E" 
d="M98 1458h623v-196h-414v-428h361v-197h-361v-428h414v-209h-623v1458z" />
    <glyph glyph-name="F" unicode="F" 
d="M98 1458h623v-196h-414v-443h361v-196h-361v-623h-209v1458z" />
    <glyph glyph-name="G" unicode="G" horiz-adv-x="872" 
d="M86 1114q0 170 107 263t244 93t243 -93.5t106 -262.5v-74h-208v74q0 76 -42 112t-99.5 36t-99.5 -36t-42 -112v-770q0 -76 42 -111.5t99.5 -35.5t99.5 35.5t42 111.5v274h-166v185h374v-459q0 -169 -106 -262.5t-243 -93.5t-244 93t-107 263v770z" />
    <glyph glyph-name="H" unicode="H" horiz-adv-x="872" 
d="M98 1458h209v-624h258v624h209v-1458h-209v649h-258v-649h-209v1458z" />
    <glyph glyph-name="I" unicode="I" horiz-adv-x="417" 
d="M104 1458h209v-1458h-209v1458z" />
    <glyph glyph-name="J" unicode="J" horiz-adv-x="681" 
d="M233 197q86 0 114 60t28 116v1085h209v-1114q0 -149 -98 -252.5t-255 -103.5t-276 131l164 131q53 -53 114 -53z" />
    <glyph glyph-name="K" unicode="K" horiz-adv-x="872" 
d="M98 1458h209v-665h4l305 665h209l-284 -584l338 -874h-222l-237 647l-113 -211v-436h-209v1458z" />
    <glyph glyph-name="L" unicode="L" 
d="M98 1458h209v-1249h414v-209h-623v1458z" />
    <glyph glyph-name="M" unicode="M" horiz-adv-x="1138" 
d="M98 1458h201l268 -772h4l267 772h202v-1458h-209v887h-4l-206 -627h-105l-205 627h-4v-887h-209v1458z" />
    <glyph glyph-name="N" unicode="N" horiz-adv-x="909" 
d="M90 1458h201l315 -878h4v878h209v-1458h-196l-320 877h-4v-877h-209v1458z" />
    <glyph glyph-name="O" unicode="O" horiz-adv-x="872" 
d="M295 344q0 -76 42 -111.5t99.5 -35.5t99.5 35.5t42 111.5v770q0 76 -42 112t-99.5 36t-99.5 -36t-42 -112v-770zM86 1114q0 170 107 263t244 93t243 -93.5t106 -262.5v-770q0 -169 -106 -262.5t-243 -93.5t-244 93t-107 263v770z" />
    <glyph glyph-name="P" unicode="P" horiz-adv-x="833" 
d="M307 766h101q114 0 143 57t29 148q0 92 -3.5 138t-27 99.5t-133.5 53.5h-109v-496zM98 1458h314q176 0 249.5 -80t94 -156t20.5 -190t-11 -183t-51 -135q-89 -146 -300 -145h-107v-569h-209v1458z" />
    <glyph glyph-name="Q" unicode="Q" horiz-adv-x="872" 
d="M86 344v770q0 170 107 263t244 93t243 -93.5t106 -262.5v-770q0 -86 -30 -149l129 -105l-107 -127l-123 100q-90 -75 -223 -75q-132 0 -239 93t-107 263zM295 344q0 -76 42 -111.5t84 -35.5t60 8l-94 76l107 127l84 -68v774q0 76 -42 112t-99.5 36t-99.5 -36t-42 -112
v-770z" />
    <glyph glyph-name="R" unicode="R" horiz-adv-x="872" 
d="M98 1458h336q369 0 369 -428q0 -127 -40 -218t-140 -146l225 -666h-221l-195 623h-125v-623h-209v1458zM307 807h119q102 0 135 54t33 141.5t-6 129.5t-35 86t-137 44h-109v-455z" />
    <glyph glyph-name="S" unicode="S" horiz-adv-x="831" 
d="M774 416q0 -428 -360 -428q-153 0 -255 100t-102 246v78h209v-66q0 -57 34 -103t100 -46t96 15t49.5 50t19.5 122t-4 124t-17.5 59.5t-37 36.5t-62.5 31l-149 61q-135 55 -181 146.5t-46 201.5q0 202 92.5 314t254.5 112t260.5 -100.5t98.5 -228.5v-103h-209v47
q0 72 -33.5 124.5t-113.5 52.5q-142 0 -142 -189q0 -89 20.5 -126.5t98.5 -67.5l160 -64q133 -51 176 -139t43 -260z" />
    <glyph glyph-name="T" unicode="T" horiz-adv-x="679" 
d="M236 1262h-242v196h692v-196h-242v-1262h-208v1262z" />
    <glyph glyph-name="U" unicode="U" horiz-adv-x="872" 
d="M774 328q0 -142 -99 -241t-238.5 -99t-239 99.5t-99.5 240.5v1130h209v-1110q0 -78 37 -114.5t92.5 -36.5t92 36.5t36.5 114.5v1110h209v-1130z" />
    <glyph glyph-name="V" unicode="V" horiz-adv-x="833" 
d="M508 0h-184l-297 1458h221l166 -1018h4l168 1018h221z" />
    <glyph glyph-name="W" unicode="W" horiz-adv-x="1214" 
d="M965 0h-197l-160 946h-4l-158 -946h-196l-217 1458h221l104 -926h4l164 926h160l170 -948h4l101 948h221z" />
    <glyph glyph-name="X" unicode="X" horiz-adv-x="796" 
d="M291 764l-273 694h222l157 -432l160 432h221l-278 -694l301 -764h-221l-183 492l-180 -492h-221z" />
    <glyph glyph-name="Y" unicode="Y" horiz-adv-x="794" 
d="M502 0h-209v616l-287 842h221l168 -579h4l168 579h221l-286 -842v-616z" />
    <glyph glyph-name="Z" unicode="Z" horiz-adv-x="681" 
d="M51 1262v196h600v-166l-401 -1095h401v-197h-620v184l393 1078h-373z" />
    <glyph glyph-name="bracketleft" unicode="[" horiz-adv-x="454" 
d="M438 1335h-135v-1417h135v-123h-319v1663h319v-123z" />
    <glyph glyph-name="backslash" unicode="\" horiz-adv-x="454" 
d="M444 -12h-163l-271 1482h164z" />
    <glyph glyph-name="bracketright" unicode="]" horiz-adv-x="454" 
d="M16 -82h136v1417h-136v123h320v-1663h-320v123z" />
    <glyph glyph-name="asciicircum" unicode="^" horiz-adv-x="1228" 
d="M547 1458h135l444 -878h-163l-349 694l-348 -694h-164z" />
    <glyph glyph-name="underscore" unicode="_" horiz-adv-x="1024" 
d="M0 -154h1024v-102h-1024v102z" />
    <glyph glyph-name="grave" unicode="`" horiz-adv-x="380" 
d="M324 1176h-136l-270 288h221z" />
    <glyph glyph-name="a" unicode="a" 
d="M260 305q0 -59 29 -96t81 -37t81.5 35t29.5 98v141q-35 6 -57 7q-164 0 -164 -148zM481 719q0 123 -104 123q-41 0 -75 -27t-44 -78h-203q11 141 97 227t225 87q215 0 264 -123t49 -205v-723h-209v106h-4q-41 -57 -83 -87.5t-98 -30.5q-244 0 -245 276q0 187 71 269.5
t259 82.5q4 0 100 -6v109z" />
    <glyph glyph-name="b" unicode="b" horiz-adv-x="796" 
d="M399 197q103 0 103 141v381q0 123 -103 123q-45 0 -74.5 -32t-29.5 -81v-403q0 -57 28.5 -93t75.5 -36zM674 960q24 -37 30.5 -90t6.5 -165v-396q0 -155 -35 -223q-53 -98 -182 -98q-78 0 -119 30.5t-80 75.5v-94h-209v1458h209v-514h4q73 107 196 107q121 0 179 -91z
" />
    <glyph glyph-name="c" unicode="c" 
d="M307 299q1 -102 109 -102q54 0 73 34.5t23 69.5h209q0 -137 -86 -225t-225 -88q-96 0 -190 55t-108 148.5t-14 156.5v342q0 138 38 209q82 152 274 152q143 0 227 -92.5t84 -239.5h-209q0 123 -75 123t-102.5 -30t-27.5 -89v-424z" />
    <glyph glyph-name="d" unicode="d" horiz-adv-x="796" 
d="M502 944v514h209v-1458h-209v94q-47 -54 -87.5 -80t-111.5 -26q-178 0 -197.5 117.5t-19.5 203.5v396q0 113 6 166t30 89q60 90 181 91q122 0 195 -107h4zM397 842q-102 0 -102 -123v-381q0 -141 102 -141q47 0 76 35.5t29 93.5v403q0 49 -30 81t-75 32z" />
    <glyph glyph-name="e" unicode="e" 
d="M276 604h205v119q0 59 -27.5 89t-74.5 30t-75 -30t-28 -89v-119zM276 299q0 -102 109 -102q53 0 72.5 34.5t23.5 69.5h209q0 -137 -86 -225t-225 -88q-96 0 -190.5 55.5t-107.5 148.5t-13 156v342q0 140 38 210q38 69 107.5 110t153.5 41q155 0 239 -92.5t84 -231.5v-287
h-414v-141z" />
    <glyph glyph-name="f" unicode="f" horiz-adv-x="454" 
d="M113 874h-103v164h103v142q0 140 77.5 209t190.5 69h96v-196h-94q-61 0 -61 -72v-152h155v-164h-155v-874h-209v874z" />
    <glyph glyph-name="g" unicode="g" horiz-adv-x="796" 
d="M397 842q-102 0 -102 -142v-381q0 -122 102 -122q45 0 75 31.5t30 80.5v404q0 57 -29 93t-76 36zM86 309v396q0 113 6 166t30 89q60 90 169 91q110 0 150 -42t61 -65v94h209v-1165q0 -123 -81 -214t-233 -91q-182 0 -241.5 110.5t-69.5 200.5h209q2 -37 29.5 -69.5
t81.5 -32.5q96 0 96 112v205h-4q-73 -106 -198 -106q-174 0 -194 117.5t-20 203.5z" />
    <glyph glyph-name="h" unicode="h" horiz-adv-x="796" 
d="M502 719q0 123 -108 123q-54 0 -76.5 -37t-22.5 -107v-698h-209v1458h209v-520h4q76 113 197 113q144 0 179.5 -92.5t35.5 -161.5v-797h-209v719z" />
    <glyph glyph-name="i" unicode="i" horiz-adv-x="380" 
d="M86 1458h209v-209h-209v209zM86 1038h209v-1038h-209v1038z" />
    <glyph glyph-name="j" unicode="j" horiz-adv-x="380" 
d="M86 1458h209v-209h-209v209zM86 1038h209v-1149q0 -154 -96.5 -231.5t-243.5 -77.5v197q76 0 103.5 38t27.5 152v1071z" />
    <glyph glyph-name="k" unicode="k" horiz-adv-x="796" 
d="M86 1458h209v-872h4l252 452h209l-248 -422l299 -616h-227l-189 449l-100 -158v-291h-209v1458z" />
    <glyph glyph-name="l" unicode="l" horiz-adv-x="380" 
d="M74 1458h209v-1165q0 -59 21.5 -81t80.5 -28v-196q-160 0 -235.5 60t-75.5 231v1179z" />
    <glyph glyph-name="m" unicode="m" horiz-adv-x="1212" 
d="M502 719q0 123 -108 123q-54 0 -76.5 -37t-22.5 -107v-698h-209v1038h209v-100h4q76 113 191 113q114 0 192 -105q94 105 194 105q115 0 182.5 -63t67.5 -191v-797h-208v719q0 123 -108 123q-54 0 -76.5 -37t-22.5 -107v-698h-209v719z" />
    <glyph glyph-name="n" unicode="n" horiz-adv-x="796" 
d="M502 719q0 123 -108 123q-54 0 -76.5 -37t-22.5 -107v-698h-209v1038h209v-100h4q76 113 197 113q144 0 179.5 -92.5t35.5 -161.5v-797h-209v719z" />
    <glyph glyph-name="o" unicode="o" 
d="M276 315q0 -59 28 -88.5t75 -29.5t74.5 29.5t27.5 88.5v408q0 59 -27.5 89t-74.5 30t-75 -30t-28 -89v-408zM68 690q0 140 38 210q38 69 107.5 110t165.5 41t189.5 -55t107.5 -148.5t14 -157.5v-342q0 -141 -38 -210t-107.5 -109.5t-165.5 -40.5t-190.5 55.5
t-107.5 148.5t-13 156v342z" />
    <glyph glyph-name="p" unicode="p" horiz-adv-x="796" 
d="M399 197q103 0 103 122v381q0 142 -103 142q-47 0 -75.5 -36t-28.5 -93v-404q0 -49 29.5 -80.5t74.5 -31.5zM295 94v-514h-209v1458h209v-94q39 45 80 76t119 31q178 0 197.5 -118t19.5 -204v-395q0 -113 -6.5 -166t-30.5 -90q-57 -90 -179 -90q-123 0 -196 106h-4z" />
    <glyph glyph-name="q" unicode="q" horiz-adv-x="796" 
d="M397 842q-102 0 -102 -142v-381q0 -122 102 -122q45 0 75 31.5t30 80.5v404q0 57 -29 93t-76 36zM86 334v395q0 160 35 223q53 98 182 99q98 0 138 -42t61 -65v94h209v-1458h-209v514h-4q-73 -106 -196 -106t-183 94q-20 33 -26.5 86t-6.5 166z" />
    <glyph glyph-name="r" unicode="r" horiz-adv-x="569" 
d="M86 1038h209v-110q63 57 124.5 90t151.5 33v-222q-61 24 -168.5 -8.5t-107.5 -204.5v-616h-209v1038z" />
    <glyph glyph-name="s" unicode="s" horiz-adv-x="720" 
d="M246 301q16 -117 105 -117q52 0 88 30t36 78t-22.5 78.5t-81.5 53.5l-101 37q-98 37 -154.5 109t-56.5 158t25 142t67 96t97 62.5t150.5 22.5t179.5 -87.5t84 -215.5h-197q-2 53 -34 79.5t-77 26.5t-71.5 -31.5t-26.5 -66.5t14.5 -62.5t73.5 -50.5l123 -49
q117 -45 161 -123t44 -157q0 -142 -88 -234t-219 -92q-132 0 -222 82.5t-94 230.5h197z" />
    <glyph glyph-name="t" unicode="t" horiz-adv-x="417" 
d="M86 1354h209v-316h129v-164h-129v-575q0 -69 25.5 -85.5t103.5 -16.5v-197h-86q-131 0 -191.5 74t-60.5 170v630h-104v164h104v316z" />
    <glyph glyph-name="u" unicode="u" horiz-adv-x="796" 
d="M295 319q0 -122 107 -122q54 0 77 36.5t23 106.5v698h209v-1038h-209v100h-4q-75 -112 -197 -112q-144 0 -179.5 92t-35.5 162v796h209v-719z" />
    <glyph glyph-name="v" unicode="v" horiz-adv-x="720" 
d="M453 0h-185l-270 1038h221l139 -663h4l140 663h221z" />
    <glyph glyph-name="w" unicode="w" horiz-adv-x="1097" 
d="M850 0h-184l-115 616h-4l-115 -616h-184l-246 1038h221l127 -645h4l117 645h164l110 -645h5l124 645h222z" />
    <glyph glyph-name="x" unicode="x" horiz-adv-x="679" 
d="M233 530l-243 508h221l129 -295l129 295h221l-248 -508l260 -530h-221l-141 317l-141 -317h-222z" />
    <glyph glyph-name="y" unicode="y" horiz-adv-x="720" 
d="M78 -420v197h47q66 0 92 41.5t66 228.5l-285 991h221l143 -647h5l141 647h215l-299 -1218q-55 -240 -289 -240h-57z" />
    <glyph glyph-name="z" unicode="z" horiz-adv-x="645" 
d="M61 854v184h549v-166l-338 -675h338v-197h-575v166l338 688h-312z" />
    <glyph glyph-name="braceleft" unicode="{" horiz-adv-x="454" 
d="M412 1335q-90 0 -90 -135v-309q0 -121 -44 -186.5t-98 -75.5v-4q90 -18 116 -106.5t26 -158.5v-305q0 -66 20 -101.5t70 -35.5h37v-123h-111q-82 0 -141.5 59.5t-59.5 168.5v309q0 104 -37 169.5t-94 65.5v123q57 0 94 64.5t37 165.5v311q0 109 59.5 168t141.5 59h111
v-123h-37z" />
    <glyph glyph-name="bar" unicode="|" horiz-adv-x="454" 
d="M145 1536h164v-2048h-164v2048z" />
    <glyph glyph-name="braceright" unicode="}" horiz-adv-x="454" 
d="M133 1200q0 135 -90 135h-37v123h111q82 0 141 -59.5t59 -167.5v-311q0 -100 37 -165t95 -65v-123q-57 0 -94.5 -65.5t-37.5 -169.5v-309q0 -109 -59 -168.5t-141 -59.5h-111v123h37q90 0 90 137v305q0 124 43.5 189.5t97.5 75.5v4q-87 15 -114 104.5t-27 157.5v309z" />
    <glyph glyph-name="asciitilde" unicode="~" horiz-adv-x="1228" 
d="M301.5 468q-39.5 -38 -86.5 -108l-74 132q86 178 256 178q87 0 228 -68q57 -25 112.5 -49.5t91.5 -24.5t61 13.5t46.5 34t40 47t37.5 53.5l73 -133q-86 -178 -256 -178q-88 0 -227 67q-57 25 -112.5 49.5t-102.5 24.5q-48 0 -87.5 -38z" />
    <glyph glyph-name="uni00A0" unicode="&#xa0;" horiz-adv-x="380" 
 />
    <glyph glyph-name="exclamdown" unicode="&#xa1;" horiz-adv-x="491" 
d="M141 1038h209v-209h-209v209zM195 678h102l80 -1098h-262z" />
    <glyph glyph-name="cent" unicode="&#xa2;" horiz-adv-x="761" 
d="M70 342v352q0 141 36 206q75 133 230 151v153h84v-153q127 -10 199.5 -101.5t72.5 -230.5h-209q0 101 -63 123v-645q35 12 47 41.5t16 62.5h209q0 -141 -84 -225q-76 -80 -188 -88v-172h-84v172q-78 6 -136 45t-94 104q-36 64 -36 205zM279 731v-440q0 -74 57 -94v645
q-25 -8 -41 -38t-16 -73z" />
    <glyph glyph-name="sterling" unicode="&#xa3;" horiz-adv-x="761" 
d="M784 109q-86 -121 -206 -121q-56 0 -192.5 19.5t-202.5 19.5t-136 -33v176q51 32 131 41q55 79 55 183t-47 216h-159v146h112q-39 72 -58.5 139.5t-19.5 159.5q0 188 82 301.5t250 113.5q117 0 210 -86.5t93 -246.5v-93h-196v82q0 55 -23.5 101.5t-89.5 46.5
q-129 0 -129 -209q0 -137 66 -309h237v-146h-190q14 -39 25.5 -76.5t11.5 -123.5t-66 -203q35 -4 80 -13.5t84 -9.5t70.5 10.5t68.5 55.5z" />
    <glyph glyph-name="currency" unicode="&#xa4;" horiz-adv-x="761" 
d="M223.5 571.5q65.5 -65.5 157.5 -65.5t157.5 65.5t65.5 157.5t-64.5 157.5t-158.5 65.5t-158.5 -66t-64.5 -157q0 -92 65.5 -157.5zM23 730q0 131 69 204l-84 86l84 84l84 -86q78 69 206.5 69t205.5 -69l84 86l82 -84l-84 -84q69 -77 69 -204t-69 -208l84 -84l-84 -84
l-84 84q-73 -69 -202.5 -69t-207.5 71l-84 -86l-84 82l86 86q-71 75 -71 206z" />
    <glyph glyph-name="yen" unicode="&#xa5;" horiz-adv-x="761" 
d="M283 352h-234v135h234v101h-234v135h201l-242 735h209l162 -579h4l162 579h209l-242 -735h201v-135h-234v-101h234v-135h-234v-352h-196v352z" />
    <glyph glyph-name="brokenbar" unicode="&#xa6;" horiz-adv-x="454" 
d="M145 1382h164v-716h-164v716zM145 358h164v-716h-164v716z" />
    <glyph glyph-name="section" unicode="&#xa7;" 
d="M276 436q0 -45 30 -76.5t72 -31.5t72.5 31.5t30.5 76.5v203q0 45 -30.5 77t-72.5 32t-72 -32t-30 -77v-203zM666 1096h-174v86q0 47 -26 86t-84 39t-78.5 -43.5t-20.5 -93.5q0 -90 16.5 -118.5t79.5 -66.5l199 -129q74 -50 93 -107t19 -175t-4 -168t-29.5 -100
t-144.5 -105q103 -55 128.5 -110.5t25.5 -160.5q0 -104 -10.5 -155t-43.5 -99t-97 -78t-141 -30q-147 0 -216.5 91.5t-69.5 201.5v86h174v-84q0 -53 32 -92t88 -39q110 0 110 159q0 102 -23 125t-43 35l-242 148q-79 48 -97.5 113.5t-18.5 185.5t8 179.5t37.5 112.5
t142.5 91q-95 46 -121 102t-26 154q0 170 78.5 251.5t201.5 81.5q178 0 227.5 -105t49.5 -175v-94z" />
    <glyph glyph-name="dieresis" unicode="&#xa8;" horiz-adv-x="380" 
d="M264 1409h185v-209h-185v209zM-68 1409h185v-209h-185v209z" />
    <glyph glyph-name="copyright" unicode="&#xa9;" horiz-adv-x="1638" 
d="M78 729q0 154 58.5 289t158.5 235.5t235.5 158.5t289 58t288.5 -58t235.5 -158.5t159 -235.5t58.5 -289t-58.5 -289t-159 -235.5t-235.5 -158.5t-288.5 -58t-289 58t-235.5 158.5t-158.5 235.5t-58.5 289zM1413 729q0 125 -47 235.5t-127 192.5t-188.5 130t-231.5 48
t-231.5 -48t-188.5 -130t-127 -192.5t-47 -235.5t47 -235.5t127 -192.5t188.5 -130t231.5 -48t231.5 48t188.5 130t127 192.5t47 235.5zM830 268q-84 0 -165 36t-169 131.5t-88 296.5t116.5 330.5t315.5 129.5q142 0 245 -81t123 -228h-135q-16 75 -80.5 124.5t-141.5 49.5
q-140 0 -218 -92.5t-78 -228.5q0 -135 81.5 -234t209.5 -99q88 0 150.5 53.5t76.5 131.5h135q-28 -146 -127.5 -233t-250.5 -87z" />
    <glyph glyph-name="ordfeminine" unicode="&#xaa;" horiz-adv-x="491" 
d="M279 1112q-103 0 -103 -90q0 -59 66 -59q35 0 54 20.5t19 48.5v76q-20 4 -36 4zM311 903q-56 -72 -117 -72q-74 0 -119.5 37.5t-45.5 136.5q0 100 47 156t174 56q10 0 65 -5v50q0 73 -68 73t-75 -61h-135q6 90 61 143q59 53 150 53q145 0 180 -73.5t35 -122.5v-434h-148
v63h-4z" />
    <glyph glyph-name="guillemotleft" unicode="&#xab;" horiz-adv-x="872" 
d="M436 772l-207 -205l207 -205v-208l-416 413l416 414v-209zM815 772l-207 -205l207 -205v-208l-416 413l416 414v-209z" />
    <glyph glyph-name="logicalnot" unicode="&#xac;" horiz-adv-x="1228" 
d="M969 641h-873v164h1037v-574h-164v410z" />
    <glyph glyph-name="uni00AD" unicode="&#xad;" horiz-adv-x="796" 
d="M90 672h617v-209h-617v209z" />
    <glyph glyph-name="registered" unicode="&#xae;" horiz-adv-x="1638" 
d="M78 729q0 154 58.5 289t158.5 235.5t235.5 158.5t289 58t288.5 -58t235.5 -158.5t159 -235.5t58.5 -289t-58.5 -289t-159 -235.5t-235.5 -158.5t-288.5 -58t-289 58t-235.5 158.5t-158.5 235.5t-58.5 289zM1413 729q0 125 -47 235.5t-127 192.5t-188.5 130t-231.5 48
t-231.5 -48t-188.5 -130t-127 -192.5t-47 -235.5t47 -235.5t127 -192.5t188.5 -130t231.5 -48t231.5 48t188.5 130t127 192.5t47 235.5zM1163 918q0 -213 -221 -242l248 -379h-164l-248 375h-104v-375h-135v864h327q297 0 297 -243zM827 795q201 -1 201 121t-158 122h-196
v-243h153z" />
    <glyph glyph-name="macron" unicode="&#xaf;" horiz-adv-x="380" 
d="M-90 1366h561v-123h-561v123z" />
    <glyph glyph-name="degree" unicode="&#xb0;" horiz-adv-x="532" 
d="M37 1241q0 47 18.5 89t49 73t72.5 49t89 18t89 -18t73 -49t49.5 -73t18.5 -89t-18.5 -89t-49.5 -72.5t-73 -49t-89 -18.5t-89 18.5t-72.5 49t-49 72.5t-18.5 89zM141 1241q0 -53 36 -89t89 -36t89 36t36 89t-36 89t-89 36t-89 -36t-36 -89z" />
    <glyph glyph-name="plusminus" unicode="&#xb1;" horiz-adv-x="1228" 
d="M96 164h1037v-164h-1037v164zM532 543h-436v164h436v329h164v-329h437v-164h-437v-330h-164v330z" />
    <glyph glyph-name="two.superior" unicode="&#xb2;" horiz-adv-x="495" 
d="M23 1270q0 86 65 143t159 57q93 0 159.5 -53.5t66.5 -132.5v-67q0 -82 -47 -154l-195 -328h242v-147h-450v110l262 435q24 43 24 79v48q0 31 -20.5 47t-43 16t-41 -16.5t-18.5 -46.5v-64h-163v74z" />
    <glyph glyph-name="three.superior" unicode="&#xb3;" horiz-adv-x="495" 
d="M205 1106q59 0 80.5 13.5t23.5 56.5v86q0 27 -16.5 44t-46.5 17t-45 -21.5t-15 -39.5v-54h-163v66q0 86 63.5 141t168.5 55t161.5 -61.5t56.5 -142.5v-84q0 -45 -14.5 -79t-69.5 -63q49 -29 66.5 -63.5t17.5 -85.5v-105q0 -137 -83 -171.5t-133 -34.5q-104 0 -169 46
t-65 146v70h163v-47q0 -31 16.5 -49.5t44.5 -18.5t45 19.5t17 41.5v107q0 47 -20.5 61.5t-83.5 14.5v135z" />
    <glyph glyph-name="acute" unicode="&#xb4;" horiz-adv-x="380" 
d="M242 1464h221l-270 -288h-136z" />
    <glyph glyph-name="mu" unicode="&#xb5;" horiz-adv-x="796" 
d="M295 319q0 -122 107 -122q54 0 77 36.5t23 106.5v698h209v-1038h-209v100h-4q-23 -48 -66 -86q-35 -26 -74 -26t-59 20h-4v-428h-209v1458h209v-719z" />
    <glyph glyph-name="paragraph" unicode="&#xb6;" horiz-adv-x="909" 
d="M373 684q-138 0 -247.5 113t-109.5 268q0 193 119.5 293t327.5 100h352v-1878h-147v1774h-148v-1774h-147v1104z" />
    <glyph glyph-name="periodcentered" unicode="&#xb7;" horiz-adv-x="380" 
d="M59 610.5q0 53.5 39 92t92.5 38.5t92.5 -38.5t39 -92t-39 -92.5t-92.5 -39t-92.5 39t-39 92.5z" />
    <glyph glyph-name="cedilla" unicode="&#xb8;" horiz-adv-x="380" 
d="M121 -365q127 0 127 78q0 41 -29 62.5t-67 21.5t-76 -14l-35 41l133 176h94l-94 -123q32 4 74 4q83 0 123.5 -48t40.5 -101q0 -96 -78 -143.5t-165 -47.5t-200 39l35 86q85 -31 117 -31z" />
    <glyph glyph-name="one.superior" unicode="&#xb9;" horiz-adv-x="495" 
d="M354 1458v-870h-164v723l-135 -88v147l135 88h164z" />
    <glyph glyph-name="ordmasculine" unicode="&#xba;" horiz-adv-x="491" 
d="M184 1036q0 -70 61.5 -69.5t61.5 69.5v228q0 72 -61.5 71.5t-61.5 -71.5v-228zM37 1268q0 88 56.5 145t152.5 57t152.5 -57t56.5 -145v-234q0 -88 -56.5 -145.5t-152.5 -57.5t-152.5 57.5t-56.5 145.5v234z" />
    <glyph glyph-name="guillemotright" unicode="&#xbb;" horiz-adv-x="872" 
d="M57 362l207 205l-207 205v209l416 -414l-416 -413v208zM436 362l207 205l-207 205v209l416 -414l-416 -413v208z" />
    <glyph glyph-name="onequarter" unicode="&#xbc;" horiz-adv-x="1136" 
d="M889 127h-293v127l201 620h164l-193 -612h121v236h164v-236h61v-135h-61v-127h-164v127zM322 1458v-870h-164v723l-135 -88v147l135 88h164zM932 1493h123l-895 -1528h-123z" />
    <glyph glyph-name="onehalf" unicode="&#xbd;" horiz-adv-x="1136" 
d="M950 625v47q0 31 -21 47t-45 16t-42.5 -16.5t-18.5 -46.5v-64h-164v74q0 86 66 143.5t160 57.5t161.5 -54t67.5 -133v-67q0 -82 -47 -154l-195 -328h242v-147h-455v111l267 434q24 43 24 80zM322 1458v-870h-164v723l-135 -88v147l135 88h164zM932 1493h123l-895 -1528
h-123z" />
    <glyph glyph-name="threequarters" unicode="&#xbe;" horiz-adv-x="1136" 
d="M889 127h-293v127l201 620h164l-193 -612h121v236h164v-236h61v-135h-61v-127h-164v127zM205 1106q59 0 80.5 13.5t23.5 56.5v86q0 27 -16.5 44t-46.5 17t-45 -21.5t-15 -39.5v-54h-163v66q0 86 63.5 141t168.5 55t161.5 -61.5t56.5 -142.5v-84q0 -45 -14.5 -79
t-69.5 -63q49 -29 66.5 -63.5t17.5 -85.5v-105q0 -137 -83 -171.5t-133 -34.5q-104 0 -169 46t-65 146v70h163v-47q0 -31 16.5 -49.5t44.5 -18.5t45 19.5t17 41.5v107q0 47 -20.5 61.5t-83.5 14.5v135zM971 1493h123l-895 -1528h-123z" />
    <glyph glyph-name="questiondown" unicode="&#xbf;" 
d="M483 829h-209v209h209v-209zM692 -121q0 -130 -92.5 -220.5t-222.5 -90.5q-184 0 -243 109.5t-63.5 159.5t-4.5 99q0 110 7 156.5t25 75.5l142 242q34 61 34 104v164h209v-191q0 -81 -51 -165l-131 -213q-27 -46 -27 -119v-109q0 -43 30 -73.5t70 -30.5t74.5 26.5
t34.5 77.5v119h209v-121z" />
    <glyph glyph-name="Agrave" unicode="&#xc0;" horiz-adv-x="833" 
d="M551 1524h-135l-271 288h222zM330 1458h174l325 -1458h-208l-62 313h-285l-61 -313h-209zM418 1038h-4l-103 -528h209z" />
    <glyph glyph-name="Aacute" unicode="&#xc1;" horiz-adv-x="833" 
d="M469 1812h221l-270 -288h-135zM330 1458h174l325 -1458h-208l-62 313h-285l-61 -313h-209zM418 1038h-4l-103 -528h209z" />
    <glyph glyph-name="Acircumflex" unicode="&#xc2;" horiz-adv-x="833" 
d="M322 1812h192l201 -288h-160l-137 194l-137 -194h-160zM330 1458h174l325 -1458h-208l-62 313h-285l-61 -313h-209zM418 1038h-4l-103 -528h209z" />
    <glyph glyph-name="Atilde" unicode="&#xc3;" horiz-adv-x="833" 
d="M571 1688q84 0 91 92h104q-23 -109 -70 -168.5t-137 -59.5q-35 0 -155 41t-152 41q-31 0 -53.5 -25.5t-24.5 -66.5h-104q39 227 206 227q34 0 151.5 -40.5t143.5 -40.5zM330 1458h174l325 -1458h-208l-62 313h-285l-61 -313h-209zM418 1038h-4l-103 -528h209z" />
    <glyph glyph-name="Adieresis" unicode="&#xc4;" horiz-adv-x="833" 
d="M492 1757h184v-209h-184v209zM160 1757h184v-209h-184v209zM330 1458h174l325 -1458h-208l-62 313h-285l-61 -313h-209zM418 1038h-4l-103 -528h209z" />
    <glyph glyph-name="Aring" unicode="&#xc5;" horiz-adv-x="833" 
d="M293 1710q0 -53 36 -89t89 -36t89 36t36 89t-36 89t-89 36t-89 -36t-36 -89zM209 1710q0 43 16.5 81t45 66.5t66.5 45t81 16.5t81 -16.5t66.5 -45t45 -66.5t16.5 -81t-16.5 -81t-45 -66.5t-66.5 -45t-81 -16.5t-81 16.5t-66.5 45t-45 66.5t-16.5 81zM330 1458h174
l325 -1458h-208l-62 313h-285l-61 -313h-209zM418 1038h-4l-103 -528h209z" />
    <glyph glyph-name="AE" unicode="&#xc6;" horiz-adv-x="1251" 
d="M592 1262h-49l-189 -752h238v752zM1214 1458v-196h-413v-428h360v-197h-360v-428h413v-209h-622v313h-287l-80 -313h-221l414 1458h796z" />
    <glyph glyph-name="Ccedilla" unicode="&#xc7;" horiz-adv-x="833" 
d="M349 -365q126 0 126 78q0 41 -28.5 62.5t-67.5 21.5t-76 -14l-35 41l125 164q-127 9 -217 91t-90 253v803q0 145 95 240t243 95t243 -97.5t95 -250.5v-82h-209v70q0 61 -35.5 106.5t-103.5 45.5t-93.5 -48.5t-25.5 -121.5v-746q0 -149 127 -149q85 0 108 52t23 95v72h209
v-90q0 -119 -76.5 -214.5t-196.5 -119.5l-88 -115q31 4 73 4q84 0 124.5 -47.5t40.5 -100.5q0 -97 -78 -144.5t-166 -47.5q-89 0 -198 39l34 86q86 -31 118 -31z" />
    <glyph glyph-name="Egrave" unicode="&#xc8;" 
d="M532 1524h-135l-270 288h221zM98 1458h623v-196h-414v-428h361v-197h-361v-428h414v-209h-623v1458z" />
    <glyph glyph-name="Eacute" unicode="&#xc9;" 
d="M451 1812h221l-271 -288h-135zM98 1458h623v-196h-414v-428h361v-197h-361v-428h414v-209h-623v1458z" />
    <glyph glyph-name="Ecircumflex" unicode="&#xca;" 
d="M303 1812h193l200 -288h-159l-138 194l-137 -194h-160zM98 1458h623v-196h-414v-428h361v-197h-361v-428h414v-209h-623v1458z" />
    <glyph glyph-name="Edieresis" unicode="&#xcb;" 
d="M473 1757h184v-209h-184v209zM141 1757h185v-209h-185v209zM98 1458h623v-196h-414v-428h361v-197h-361v-428h414v-209h-623v1458z" />
    <glyph glyph-name="Igrave" unicode="&#xcc;" horiz-adv-x="417" 
d="M342 1524h-135l-270 288h221zM104 1458h209v-1458h-209v1458z" />
    <glyph glyph-name="Iacute" unicode="&#xcd;" horiz-adv-x="417" 
d="M260 1812h221l-270 -288h-135zM104 1458h209v-1458h-209v1458z" />
    <glyph glyph-name="Icircumflex" unicode="&#xce;" horiz-adv-x="417" 
d="M113 1812h192l201 -288h-160l-137 194l-137 -194h-160zM104 1458h209v-1458h-209v1458z" />
    <glyph glyph-name="Idieresis" unicode="&#xcf;" horiz-adv-x="417" 
d="M283 1757h184v-209h-184v209zM-49 1757h184v-209h-184v209zM104 1458h209v-1458h-209v1458z" />
    <glyph glyph-name="Eth" unicode="&#xd0;" horiz-adv-x="872" 
d="M98 717h-98v135h98v606h310q178 0 272 -99t94 -278v-682q0 -205 -99.5 -302t-285.5 -97h-291v717zM307 852h144v-135h-144v-520h96q88 0 125 44t37 138v702q0 86 -34.5 133.5t-127.5 47.5h-96v-410z" />
    <glyph glyph-name="Ntilde" unicode="&#xd1;" horiz-adv-x="909" 
d="M313 1769q34 0 151.5 -40.5t151.5 -40.5q35 0 57.5 25.5t24.5 66.5h105q-23 -109 -70 -168.5t-137 -59.5q-36 0 -155 41t-151 41t-54.5 -25.5t-24.5 -66.5h-105q39 227 207 227zM90 1458h201l315 -878h4v878h209v-1458h-196l-320 877h-4v-877h-209v1458z" />
    <glyph glyph-name="Ograve" unicode="&#xd2;" horiz-adv-x="872" 
d="M569 1524h-135l-270 288h221zM295 344q0 -76 42 -111.5t99.5 -35.5t99.5 35.5t42 111.5v770q0 76 -42 112t-99.5 36t-99.5 -36t-42 -112v-770zM86 1114q0 170 107 263t244 93t243 -93.5t106 -262.5v-770q0 -169 -106 -262.5t-243 -93.5t-244 93t-107 263v770z" />
    <glyph glyph-name="Oacute" unicode="&#xd3;" horiz-adv-x="872" 
d="M487 1812h222l-271 -288h-135zM295 344q0 -76 42 -111.5t99.5 -35.5t99.5 35.5t42 111.5v770q0 76 -42 112t-99.5 36t-99.5 -36t-42 -112v-770zM86 1114q0 170 107 263t244 93t243 -93.5t106 -262.5v-770q0 -169 -106 -262.5t-243 -93.5t-244 93t-107 263v770z" />
    <glyph glyph-name="Ocircumflex" unicode="&#xd4;" horiz-adv-x="872" 
d="M340 1812h192l201 -288h-160l-137 194l-137 -194h-160zM295 344q0 -76 42 -111.5t99.5 -35.5t99.5 35.5t42 111.5v770q0 76 -42 112t-99.5 36t-99.5 -36t-42 -112v-770zM86 1114q0 170 107 263t244 93t243 -93.5t106 -262.5v-770q0 -169 -106 -262.5t-243 -93.5t-244 93
t-107 263v770z" />
    <glyph glyph-name="Otilde" unicode="&#xd5;" horiz-adv-x="872" 
d="M295 1769q32 0 150.5 -40.5t153.5 -40.5q34 0 56.5 25.5t24.5 66.5h104q-23 -109 -70 -168.5t-136 -59.5q-36 0 -155 41t-151 41t-54.5 -25.5t-24.5 -66.5h-105q39 227 207 227zM295 344q0 -76 42 -111.5t99.5 -35.5t99.5 35.5t42 111.5v770q0 76 -42 112t-99.5 36
t-99.5 -36t-42 -112v-770zM86 1114q0 170 107 263t244 93t243 -93.5t106 -262.5v-770q0 -169 -106 -262.5t-243 -93.5t-244 93t-107 263v770z" />
    <glyph glyph-name="Odieresis" unicode="&#xd6;" horiz-adv-x="872" 
d="M510 1757h184v-209h-184v209zM178 1757h184v-209h-184v209zM295 344q0 -76 42 -111.5t99.5 -35.5t99.5 35.5t42 111.5v770q0 76 -42 112t-99.5 36t-99.5 -36t-42 -112v-770zM86 1114q0 170 107 263t244 93t243 -93.5t106 -262.5v-770q0 -169 -106 -262.5t-243 -93.5
t-244 93t-107 263v770z" />
    <glyph glyph-name="multiply" unicode="&#xd7;" horiz-adv-x="1228" 
d="M500 518l-363 363l117 114l360 -360l363 360l115 -114l-361 -363l361 -360l-115 -117l-363 362l-360 -362l-117 117z" />
    <glyph glyph-name="Oslash" unicode="&#xd8;" horiz-adv-x="872" 
d="M437 197q56 0 98.5 35.5t42.5 111.5v576h-5l-278 -586q4 -70 45 -103.5t97 -33.5zM434 1262q-55 0 -97 -36t-42 -112v-577h4l279 587q-4 72 -46.5 105t-97.5 33zM86 344v770q0 170 107 263t250 93t249 -106l82 172l78 -45l-102 -211q36 -74 36 -166v-770
q0 -169 -106 -262.5t-254 -93.5t-246 106l-82 -172l-78 45l103 211q-37 70 -37 166z" />
    <glyph glyph-name="Ugrave" unicode="&#xd9;" horiz-adv-x="872" 
d="M569 1524h-135l-270 288h221zM774 328q0 -142 -99 -241t-238.5 -99t-239 99.5t-99.5 240.5v1130h209v-1110q0 -78 37 -114.5t92.5 -36.5t92 36.5t36.5 114.5v1110h209v-1130z" />
    <glyph glyph-name="Uacute" unicode="&#xda;" horiz-adv-x="872" 
d="M487 1812h222l-271 -288h-135zM774 328q0 -142 -99 -241t-238.5 -99t-239 99.5t-99.5 240.5v1130h209v-1110q0 -78 37 -114.5t92.5 -36.5t92 36.5t36.5 114.5v1110h209v-1130z" />
    <glyph glyph-name="Ucircumflex" unicode="&#xdb;" horiz-adv-x="872" 
d="M340 1812h192l201 -288h-160l-137 194l-137 -194h-160zM774 328q0 -142 -99 -241t-238.5 -99t-239 99.5t-99.5 240.5v1130h209v-1110q0 -78 37 -114.5t92.5 -36.5t92 36.5t36.5 114.5v1110h209v-1130z" />
    <glyph glyph-name="Udieresis" unicode="&#xdc;" horiz-adv-x="872" 
d="M510 1757h184v-209h-184v209zM178 1757h184v-209h-184v209zM774 328q0 -142 -99 -241t-238.5 -99t-239 99.5t-99.5 240.5v1130h209v-1110q0 -78 37 -114.5t92.5 -36.5t92 36.5t36.5 114.5v1110h209v-1130z" />
    <glyph glyph-name="Yacute" unicode="&#xdd;" horiz-adv-x="794" 
d="M449 1812h221l-271 -288h-135zM502 0h-209v616l-287 842h221l168 -579h4l168 579h221l-286 -842v-616z" />
    <glyph glyph-name="Thorn" unicode="&#xde;" horiz-adv-x="833" 
d="M307 512h101q114 0 143 57t29 148q0 92 -3.5 138t-27 99.5t-133.5 53.5h-109v-496zM98 1458h209v-254h105q176 0 249.5 -80t94 -156t20.5 -190t-11 -183t-51 -135q-89 -146 -300 -145h-107v-315h-209v1458z" />
    <glyph glyph-name="germandbls" unicode="&#xdf;" horiz-adv-x="796" 
d="M711 635v-361q0 -169 -78.5 -227.5t-220.5 -58.5v196q45 0 67.5 19.5t22.5 85.5v389q0 41 -23.5 54t-66.5 13v185q47 0 68.5 15.5t21.5 64.5v164q0 43 -19.5 71.5t-79 28.5t-84 -39t-24.5 -141v-1094h-209v1130q0 145 78.5 242.5t230.5 97.5q316 0 316 -372
q0 -104 -18.5 -145.5t-42 -63t-60.5 -45.5q121 -68 121 -209z" />
    <glyph glyph-name="agrave" unicode="&#xe0;" 
d="M512 1176h-135l-271 288h222zM260 305q0 -59 29 -96t81 -37t81.5 35t29.5 98v141q-35 6 -57 7q-164 0 -164 -148zM481 719q0 123 -104 123q-41 0 -75 -27t-44 -78h-203q11 141 97 227t225 87q215 0 264 -123t49 -205v-723h-209v106h-4q-41 -57 -83 -87.5t-98 -30.5
q-244 0 -245 276q0 187 71 269.5t259 82.5q4 0 100 -6v109z" />
    <glyph glyph-name="aacute" unicode="&#xe1;" 
d="M430 1464h221l-270 -288h-135zM260 305q0 -59 29 -96t81 -37t81.5 35t29.5 98v141q-35 6 -57 7q-164 0 -164 -148zM481 719q0 123 -104 123q-41 0 -75 -27t-44 -78h-203q11 141 97 227t225 87q215 0 264 -123t49 -205v-723h-209v106h-4q-41 -57 -83 -87.5t-98 -30.5
q-244 0 -245 276q0 187 71 269.5t259 82.5q4 0 100 -6v109z" />
    <glyph glyph-name="acircumflex" unicode="&#xe2;" 
d="M283 1464h192l201 -288h-160l-137 194l-137 -194h-160zM260 305q0 -59 29 -96t81 -37t81.5 35t29.5 98v141q-35 6 -57 7q-164 0 -164 -148zM481 719q0 123 -104 123q-41 0 -75 -27t-44 -78h-203q11 141 97 227t225 87q215 0 264 -123t49 -205v-723h-209v106h-4
q-41 -57 -83 -87.5t-98 -30.5q-244 0 -245 276q0 187 71 269.5t259 82.5q4 0 100 -6v109z" />
    <glyph glyph-name="atilde" unicode="&#xe3;" 
d="M238 1421q33 0 152 -41t152 -41t56 26t25 67h104q-23 -109 -70 -168.5t-137 -59.5q-35 0 -154 41t-152 41q-32 0 -54.5 -25.5t-24.5 -66.5h-104q39 227 207 227zM260 305q0 -59 29 -96t81 -37t81.5 35t29.5 98v141q-35 6 -57 7q-164 0 -164 -148zM481 719q0 123 -104 123
q-41 0 -75 -27t-44 -78h-203q11 141 97 227t225 87q215 0 264 -123t49 -205v-723h-209v106h-4q-41 -57 -83 -87.5t-98 -30.5q-244 0 -245 276q0 187 71 269.5t259 82.5q4 0 100 -6v109z" />
    <glyph glyph-name="adieresis" unicode="&#xe4;" 
d="M453 1409h184v-209h-184v209zM121 1409h184v-209h-184v209zM260 305q0 -59 29 -96t81 -37t81.5 35t29.5 98v141q-35 6 -57 7q-164 0 -164 -148zM481 719q0 123 -104 123q-41 0 -75 -27t-44 -78h-203q11 141 97 227t225 87q215 0 264 -123t49 -205v-723h-209v106h-4
q-41 -57 -83 -87.5t-98 -30.5q-244 0 -245 276q0 187 71 269.5t259 82.5q4 0 100 -6v109z" />
    <glyph glyph-name="aring" unicode="&#xe5;" 
d="M254 1351.5q0 -53.5 36 -89t89 -35.5t89 35.5t36 89t-36 89.5t-89 36t-89 -36t-36 -89.5zM170 1352q0 43 16.5 80.5t45 66.5t66.5 45.5t81 16.5t81 -16.5t66.5 -45.5t45 -66.5t16.5 -80.5t-16.5 -81t-45 -66.5t-66.5 -45t-81 -16.5t-81 16.5t-66.5 45t-45 66.5t-16.5 81z
M260 305q0 -59 29 -96t81 -37t81.5 35t29.5 98v141q-35 6 -57 7q-164 0 -164 -148zM481 719q0 123 -104 123q-41 0 -75 -27t-44 -78h-203q11 141 97 227t225 87q215 0 264 -123t49 -205v-723h-209v106h-4q-41 -57 -83 -87.5t-98 -30.5q-244 0 -245 276q0 187 71 269.5
t259 82.5q4 0 100 -6v109z" />
    <glyph glyph-name="ae" unicode="&#xe6;" horiz-adv-x="1171" 
d="M260 305q0 -59 29 -96t81 -37t81.5 35t29.5 98v141q-35 6 -57 7q-164 0 -164 -148zM690 299q0 -102 108 -102q54 0 73.5 34.5t23.5 69.5h209q0 -138 -89.5 -225.5t-221.5 -87.5q-104 -2 -173 43t-100 104q-74 -147 -233 -147q-160 0 -198 95t-38 182q0 186 71 268.5
t259 82.5q4 0 100 -6v109q0 123 -104 123q-41 0 -75 -27t-44 -78h-203q8 138 94.5 226t217.5 88q130 0 217 -74q82 74 217 74t219 -92.5t84 -231.5v-287h-414v-141zM690 604h205v119q0 59 -27.5 89t-75 30t-75 -30t-27.5 -89v-119z" />
    <glyph glyph-name="ccedilla" unicode="&#xe7;" 
d="M307 299q1 -102 109 -102q54 0 73 34.5t23 69.5h209q0 -137 -79 -217t-191 -92l-89 -115q32 4 74 4q84 0 124 -47.5t40 -100.5q0 -97 -78 -144.5t-166 -47.5q-89 0 -198 39l35 86q85 -31 117 -31q126 0 126 78q0 41 -28.5 62.5t-67.5 21.5t-76 -14l-35 41l129 168
q-153 20 -221 145q-39 70 -39 211v342q0 138 38 209q82 152 274 152q143 0 227 -92.5t84 -239.5h-209q0 123 -75 123t-102.5 -30t-27.5 -89v-424z" />
    <glyph glyph-name="egrave" unicode="&#xe8;" 
d="M512 1176h-135l-271 288h222zM276 604h205v119q0 59 -27.5 89t-74.5 30t-75 -30t-28 -89v-119zM276 299q0 -102 109 -102q53 0 72.5 34.5t23.5 69.5h209q0 -137 -86 -225t-225 -88q-96 0 -190.5 55.5t-107.5 148.5t-13 156v342q0 140 38 210q38 69 107.5 110t153.5 41
q155 0 239 -92.5t84 -231.5v-287h-414v-141z" />
    <glyph glyph-name="eacute" unicode="&#xe9;" 
d="M430 1464h221l-270 -288h-135zM276 604h205v119q0 59 -27.5 89t-74.5 30t-75 -30t-28 -89v-119zM276 299q0 -102 109 -102q53 0 72.5 34.5t23.5 69.5h209q0 -137 -86 -225t-225 -88q-96 0 -190.5 55.5t-107.5 148.5t-13 156v342q0 140 38 210q38 69 107.5 110t153.5 41
q155 0 239 -92.5t84 -231.5v-287h-414v-141z" />
    <glyph glyph-name="ecircumflex" unicode="&#xea;" 
d="M283 1464h192l201 -288h-160l-137 194l-137 -194h-160zM276 604h205v119q0 59 -27.5 89t-74.5 30t-75 -30t-28 -89v-119zM276 299q0 -102 109 -102q53 0 72.5 34.5t23.5 69.5h209q0 -137 -86 -225t-225 -88q-96 0 -190.5 55.5t-107.5 148.5t-13 156v342q0 140 38 210
q38 69 107.5 110t153.5 41q155 0 239 -92.5t84 -231.5v-287h-414v-141z" />
    <glyph glyph-name="edieresis" unicode="&#xeb;" 
d="M453 1409h184v-209h-184v209zM121 1409h184v-209h-184v209zM276 604h205v119q0 59 -27.5 89t-74.5 30t-75 -30t-28 -89v-119zM276 299q0 -102 109 -102q53 0 72.5 34.5t23.5 69.5h209q0 -137 -86 -225t-225 -88q-96 0 -190.5 55.5t-107.5 148.5t-13 156v342q0 140 38 210
q38 69 107.5 110t153.5 41q155 0 239 -92.5t84 -231.5v-287h-414v-141z" />
    <glyph glyph-name="igrave" unicode="&#xec;" horiz-adv-x="380" 
d="M324 1176h-136l-270 288h221zM86 1038h209v-1038h-209v1038z" />
    <glyph glyph-name="iacute" unicode="&#xed;" horiz-adv-x="380" 
d="M242 1464h221l-270 -288h-136zM86 1038h209v-1038h-209v1038z" />
    <glyph glyph-name="icircumflex" unicode="&#xee;" horiz-adv-x="380" 
d="M94 1464h193l200 -288h-159l-138 194l-137 -194h-159zM86 1038h209v-1038h-209v1038z" />
    <glyph glyph-name="idieresis" unicode="&#xef;" horiz-adv-x="380" 
d="M264 1409h185v-209h-185v209zM-68 1409h185v-209h-185v209zM86 1038h209v-1038h-209v1038z" />
    <glyph glyph-name="eth" unicode="&#xf0;" 
d="M690 836v-488q0 -141 -38 -210t-107.5 -109.5t-165.5 -40.5t-190.5 55.5t-107.5 148.5t-13 156v342q0 140 38 210q38 69 107.5 110t165.5 41q60 0 98 -47l4 4q-33 150 -96 227l-152 -72l-57 82l141 66q-59 49 -157 88l170 90q94 -33 164 -96l139 65l57 -82l-129 -59
q129 -169 129 -481zM276 315q0 -59 28 -88.5t75 -29.5t74.5 29.5t27.5 88.5v408q0 59 -27.5 89t-74.5 30t-75 -30t-28 -89v-408z" />
    <glyph glyph-name="ntilde" unicode="&#xf1;" horiz-adv-x="796" 
d="M553 1204q-48 0 -167 41t-151 41t-54.5 -25.5t-24.5 -66.5h-105q17 102 52.5 146t70.5 62.5t72 18.5q46 0 165 -41t152 -41t55.5 26t24.5 67h105q-23 -110 -71 -169t-124 -59zM502 719q0 123 -108 123q-54 0 -76.5 -37t-22.5 -107v-698h-209v1038h209v-100h4
q76 113 197 113q144 0 179.5 -92.5t35.5 -161.5v-797h-209v719z" />
    <glyph glyph-name="ograve" unicode="&#xf2;" 
d="M512 1176h-135l-271 288h222zM276 315q0 -59 28 -88.5t75 -29.5t74.5 29.5t27.5 88.5v408q0 59 -27.5 89t-74.5 30t-75 -30t-28 -89v-408zM68 690q0 140 38 210q38 69 107.5 110t165.5 41t189.5 -55t107.5 -148.5t14 -157.5v-342q0 -141 -38 -210t-107.5 -109.5
t-165.5 -40.5t-190.5 55.5t-107.5 148.5t-13 156v342z" />
    <glyph glyph-name="oacute" unicode="&#xf3;" 
d="M430 1464h221l-270 -288h-135zM276 315q0 -59 28 -88.5t75 -29.5t74.5 29.5t27.5 88.5v408q0 59 -27.5 89t-74.5 30t-75 -30t-28 -89v-408zM68 690q0 140 38 210q38 69 107.5 110t165.5 41t189.5 -55t107.5 -148.5t14 -157.5v-342q0 -141 -38 -210t-107.5 -109.5
t-165.5 -40.5t-190.5 55.5t-107.5 148.5t-13 156v342z" />
    <glyph glyph-name="ocircumflex" unicode="&#xf4;" 
d="M283 1464h192l201 -288h-160l-137 194l-137 -194h-160zM276 315q0 -59 28 -88.5t75 -29.5t74.5 29.5t27.5 88.5v408q0 59 -27.5 89t-74.5 30t-75 -30t-28 -89v-408zM68 690q0 140 38 210q38 69 107.5 110t165.5 41t189.5 -55t107.5 -148.5t14 -157.5v-342
q0 -141 -38 -210t-107.5 -109.5t-165.5 -40.5t-190.5 55.5t-107.5 148.5t-13 156v342z" />
    <glyph glyph-name="otilde" unicode="&#xf5;" 
d="M238 1421q33 0 152 -41t152 -41t56 26t25 67h104q-23 -109 -70 -168.5t-137 -59.5q-35 0 -154 41t-152 41q-32 0 -54.5 -25.5t-24.5 -66.5h-104q39 227 207 227zM276 315q0 -59 28 -88.5t75 -29.5t74.5 29.5t27.5 88.5v408q0 59 -27.5 89t-74.5 30t-75 -30t-28 -89v-408z
M68 690q0 140 38 210q38 69 107.5 110t165.5 41t189.5 -55t107.5 -148.5t14 -157.5v-342q0 -141 -38 -210t-107.5 -109.5t-165.5 -40.5t-190.5 55.5t-107.5 148.5t-13 156v342z" />
    <glyph glyph-name="odieresis" unicode="&#xf6;" 
d="M453 1409h184v-209h-184v209zM121 1409h184v-209h-184v209zM276 315q0 -59 28 -88.5t75 -29.5t74.5 29.5t27.5 88.5v408q0 59 -27.5 89t-74.5 30t-75 -30t-28 -89v-408zM68 690q0 140 38 210q38 69 107.5 110t165.5 41t189.5 -55t107.5 -148.5t14 -157.5v-342
q0 -141 -38 -210t-107.5 -109.5t-165.5 -40.5t-190.5 55.5t-107.5 148.5t-13 156v342z" />
    <glyph glyph-name="divide" unicode="&#xf7;" horiz-adv-x="1228" 
d="M483 942q0 53 39 92t92.5 39t92 -39t38.5 -92t-38.5 -92t-92 -39t-92.5 39t-39 92zM483 94q0 53 39 92t92.5 39t92 -39t38.5 -92t-38.5 -92t-92 -39t-92.5 39t-39 92zM96 600h1037v-164h-1037v164z" />
    <glyph glyph-name="oslash" unicode="&#xf8;" 
d="M68 324v391q0 148 84.5 242t222.5 94q139 0 221 -86l84 141l70 -43l-101 -170q41 -82 41 -178v-391q0 -150 -84.5 -243t-223.5 -93q-138 0 -220 86l-84 -142l-70 43l101 170q-41 82 -41 179zM481 315v295h-4l-194 -334q12 -80 96 -79q47 0 74.5 29.5t27.5 88.5zM379 842
q-47 0 -75 -30t-28 -89v-295h5l194 334q-12 80 -96 80z" />
    <glyph glyph-name="ugrave" unicode="&#xf9;" horiz-adv-x="796" 
d="M532 1176h-135l-270 288h221zM295 319q0 -122 107 -122q54 0 77 36.5t23 106.5v698h209v-1038h-209v100h-4q-75 -112 -197 -112q-144 0 -179.5 92t-35.5 162v796h209v-719z" />
    <glyph glyph-name="uacute" unicode="&#xfa;" horiz-adv-x="796" 
d="M451 1464h221l-271 -288h-135zM295 319q0 -122 107 -122q54 0 77 36.5t23 106.5v698h209v-1038h-209v100h-4q-75 -112 -197 -112q-144 0 -179.5 92t-35.5 162v796h209v-719z" />
    <glyph glyph-name="ucircumflex" unicode="&#xfb;" horiz-adv-x="796" 
d="M303 1464h193l200 -288h-159l-138 194l-137 -194h-160zM295 319q0 -122 107 -122q54 0 77 36.5t23 106.5v698h209v-1038h-209v100h-4q-75 -112 -197 -112q-144 0 -179.5 92t-35.5 162v796h209v-719z" />
    <glyph glyph-name="udieresis" unicode="&#xfc;" horiz-adv-x="796" 
d="M473 1409h184v-209h-184v209zM141 1409h185v-209h-185v209zM295 319q0 -122 107 -122q54 0 77 36.5t23 106.5v698h209v-1038h-209v100h-4q-75 -112 -197 -112q-144 0 -179.5 92t-35.5 162v796h209v-719z" />
    <glyph glyph-name="yacute" unicode="&#xfd;" horiz-adv-x="720" 
d="M412 1464h221l-271 -288h-135zM78 -420v197h47q66 0 92 41.5t66 228.5l-285 991h221l143 -647h5l141 647h215l-299 -1218q-55 -240 -289 -240h-57z" />
    <glyph glyph-name="thorn" unicode="&#xfe;" horiz-adv-x="796" 
d="M399 197q103 0 103 122v381q0 142 -103 142q-47 0 -75.5 -36t-28.5 -93v-404q0 -49 29.5 -80.5t74.5 -31.5zM295 94v-514h-209v1878h209v-514q39 45 80 76t119 31q178 0 197.5 -118t19.5 -204v-395q0 -113 -6.5 -166t-30.5 -90q-57 -90 -179 -90q-123 0 -196 106h-4z" />
    <glyph glyph-name="ydieresis" unicode="&#xff;" horiz-adv-x="720" 
d="M434 1409h184v-209h-184v209zM102 1409h185v-209h-185v209zM78 -420v197h47q66 0 92 41.5t66 228.5l-285 991h221l143 -647h5l141 647h215l-299 -1218q-55 -240 -289 -240h-57z" />
    <glyph glyph-name="dotlessi" unicode="&#x131;" horiz-adv-x="380" 
d="M86 1038h209v-1038h-209v1038z" />
    <glyph glyph-name="Lslash" unicode="&#x141;" 
d="M98 1458h209v-567l246 196v-184l-246 -196v-498h414v-209h-623v543l-98 -78v184l98 78v731z" />
    <glyph glyph-name="lslash" unicode="&#x142;" horiz-adv-x="380" 
d="M74 1458h209v-495l102 88v-148l-102 -88v-522q0 -59 21.5 -81t80.5 -28v-196q-160 0 -235.5 60t-75.5 231v352l-103 -90v147l103 90v680z" />
    <glyph glyph-name="OE" unicode="&#x152;" horiz-adv-x="1249" 
d="M586 70q-64 -82 -186 -82q-62 0 -120.5 27.5t-120 101.5t-61.5 217v790q0 144 86 245t215 101q130 0 187 -86h4v74h622v-196h-413v-428h360v-197h-360v-428h413v-209h-622v70h-4zM590 1135q0 61 -38 106t-103.5 45t-103.5 -45t-38 -106v-811q0 -61 38 -106.5t103.5 -45.5
t103.5 45t38 107v811z" />
    <glyph glyph-name="oe" unicode="&#x153;" horiz-adv-x="1171" 
d="M276 315q0 -59 28 -88.5t75 -29.5t74.5 29.5t27.5 88.5v408q0 59 -27.5 89t-74.5 30t-75 -30t-28 -89v-408zM690 604h205v119q0 59 -27.5 89t-75 30t-75 -30t-27.5 -89v-119zM690 299q0 -102 108 -102q54 0 73.5 34.5t23.5 69.5h209q0 -137 -86 -225t-225 -88
q-57 0 -119 17.5t-96 53.5q-75 -71 -185 -71q-205 0 -287 149q-38 68 -38 211v342q0 140 38 210q38 69 107.5 110t178.5 41t194 -70q82 70 216 70t218 -92.5t84 -231.5v-287h-414v-141z" />
    <glyph glyph-name="Scaron" unicode="&#x160;" horiz-adv-x="831" 
d="M512 1524h-193l-200 288h160l137 -194l137 194h160zM774 416q0 -428 -360 -428q-153 0 -255 100t-102 246v78h209v-66q0 -57 34 -103t100 -46t96 15t49.5 50t19.5 122t-4 124t-17.5 59.5t-37 36.5t-62.5 31l-149 61q-135 55 -181 146.5t-46 201.5q0 202 92.5 314
t254.5 112t260.5 -100.5t98.5 -228.5v-103h-209v47q0 72 -33.5 124.5t-113.5 52.5q-142 0 -142 -189q0 -89 20.5 -126.5t98.5 -67.5l160 -64q133 -51 176 -139t43 -260z" />
    <glyph glyph-name="scaron" unicode="&#x161;" horiz-adv-x="720" 
d="M457 1176h-193l-201 288h160l137 -194l138 194h159zM246 301q16 -117 105 -117q52 0 88 30t36 78t-22.5 78.5t-81.5 53.5l-101 37q-98 37 -154.5 109t-56.5 158t25 142t67 96t97 62.5t150.5 22.5t179.5 -87.5t84 -215.5h-197q-2 53 -34 79.5t-77 26.5t-71.5 -31.5
t-26.5 -66.5t14.5 -62.5t73.5 -50.5l123 -49q117 -45 161 -123t44 -157q0 -142 -88 -234t-219 -92q-132 0 -222 82.5t-94 230.5h197z" />
    <glyph glyph-name="Ydieresis" unicode="&#x178;" horiz-adv-x="794" 
d="M471 1757h184v-209h-184v209zM139 1757h185v-209h-185v209zM502 0h-209v616l-287 842h221l168 -579h4l168 579h221l-286 -842v-616z" />
    <glyph glyph-name="Zcaron" unicode="&#x17d;" horiz-adv-x="681" 
d="M438 1524h-192l-201 288h160l137 -194l137 194h160zM51 1262v196h600v-166l-401 -1095h401v-197h-620v184l393 1078h-373z" />
    <glyph glyph-name="zcaron" unicode="&#x17e;" horiz-adv-x="645" 
d="M420 1176h-193l-200 288h159l138 -194l137 194h160zM61 854v184h549v-166l-338 -675h338v-197h-575v166l338 688h-312z" />
    <glyph glyph-name="florin" unicode="&#x192;" horiz-adv-x="761" 
d="M625 1286q-37 0 -63.5 -31.5t-41.5 -119.5l-37 -211h158l-27 -164h-159l-146 -815q-32 -180 -103 -269.5t-220 -89.5q-58 0 -109 17l23 192q37 -12 86 -12q95 0 116 123l154 854h-164l23 164h172l47 262q43 237 139 260.5t146 23.5t131 -8l-29 -188q-59 12 -96 12z" />
    <glyph glyph-name="circumflex" unicode="&#x2c6;" horiz-adv-x="380" 
d="M94 1464h193l200 -288h-159l-138 194l-137 -194h-159z" />
    <glyph glyph-name="caron" unicode="&#x2c7;" horiz-adv-x="380" 
d="M287 1176h-193l-200 288h159l137 -194l138 194h159z" />
    <glyph glyph-name="uni02C9" unicode="&#x2c9;" horiz-adv-x="380" 
d="M-90 1366h561v-123h-561v123z" />
    <glyph glyph-name="breve" unicode="&#x2d8;" horiz-adv-x="380" 
d="M174 1309q173 0 198 63.5t29 91.5h105q-43 -279 -315.5 -278.5t-315.5 278.5h105q21 -155 194 -155z" />
    <glyph glyph-name="dotaccent" unicode="&#x2d9;" horiz-adv-x="380" 
d="M98 1409h185v-209h-185v209z" />
    <glyph glyph-name="ring" unicode="&#x2da;" horiz-adv-x="380" 
d="M66 1351.5q0 -53.5 35.5 -89t89 -35.5t89 35.5t35.5 89t-35.5 89.5t-89 36t-89 -36t-35.5 -89.5zM-18 1352q0 43 16 80.5t45 66.5t66.5 45.5t80.5 16.5t81 -16.5t67 -45.5t45 -66.5t16 -80.5t-16 -81t-45 -66.5t-67 -45t-81 -16.5t-80.5 16.5t-66.5 45t-45 66.5t-16 81z
" />
    <glyph glyph-name="ogonek" unicode="&#x2db;" horiz-adv-x="380" 
d="M-2 -272q0 125 74.5 184t115.5 88h105q-131 -127 -131 -258q0 -49 29.5 -78t78.5 -29t101 27l28 -76q-87 -45 -186 -45q-98 0 -156.5 50.5t-58.5 136.5z" />
    <glyph glyph-name="tilde" unicode="&#x2dc;" horiz-adv-x="380" 
d="M344 1204q-48 0 -167 41t-151 41t-54.5 -25.5t-24.5 -66.5h-105q17 102 52.5 146t70.5 62.5t72 18.5q46 0 165 -41t152 -41t55.5 26t24.5 67h105q-23 -109 -70 -168.5t-125 -59.5z" />
    <glyph glyph-name="hungarumlaut" unicode="&#x2dd;" horiz-adv-x="380" 
d="M406 1464h221l-271 -288h-135zM74 1464h221l-270 -288h-136z" />
    <glyph glyph-name="uni03A9" unicode="&#x3a9;" horiz-adv-x="931" 
d="M68 771q0 313 112 497t296 184t283 -191t99 -457q0 -265 -64.5 -415.5t-95.5 -200.5v-6h181v-182h-353v129q51 66 91 227.5t40 403.5q0 341 -69.5 419t-119.5 78t-88 -36.5t-62.5 -104t-38 -160t-13.5 -252t39 -331t92 -244.5v-129h-352v182h180v6q-63 104 -110 260
t-47 323z" />
    <glyph glyph-name="uni03BC" unicode="&#x3bc;" horiz-adv-x="796" 
d="M295 319q0 -122 107 -122q54 0 77 36.5t23 106.5v698h209v-1038h-209v100h-4q-23 -48 -66 -86q-35 -26 -74 -26t-59 20h-4v-428h-209v1458h209v-719z" />
    <glyph glyph-name="pi" unicode="&#x3c0;" horiz-adv-x="864" 
d="M254 1075h584l-13 -194h-94v-619q0 -188 19 -262h-187q-27 66 -26 264v617h-181q-29 -590 -96 -881h-186q58 276 74 535.5t16 345.5q-80 0 -125 -15l-25 148q71 61 240 61z" />
    <glyph glyph-name="endash" unicode="&#x2013;" horiz-adv-x="1024" 
d="M0 666h1024v-197h-1024v197z" />
    <glyph glyph-name="emdash" unicode="&#x2014;" horiz-adv-x="2048" 
d="M0 666h2048v-197h-2048v197z" />
    <glyph glyph-name="quoteleft" unicode="&#x2018;" horiz-adv-x="380" 
d="M295 1098h-209v209l209 151v-360z" />
    <glyph glyph-name="quoteright" unicode="&#x2019;" horiz-adv-x="380" 
d="M86 1458h209v-209l-209 -151v360z" />
    <glyph glyph-name="quotesinglbase" unicode="&#x201a;" horiz-adv-x="380" 
d="M86 209h209v-209l-209 -152v361z" />
    <glyph glyph-name="quotedblleft" unicode="&#x201c;" horiz-adv-x="569" 
d="M246 1098h-209v209l209 151v-360zM532 1098h-208v209l208 151v-360z" />
    <glyph glyph-name="quotedblright" unicode="&#x201d;" horiz-adv-x="569" 
d="M324 1458h208v-209l-208 -151v360zM37 1458h209v-209l-209 -151v360z" />
    <glyph glyph-name="quotedblbase" unicode="&#x201e;" horiz-adv-x="569" 
d="M324 209h208v-209l-208 -152v361zM37 209h209v-209l-209 -152v361z" />
    <glyph glyph-name="dagger" unicode="&#x2020;" 
d="M287 811h-275v184h275v463h184v-463h274v-184h-274v-1231h-184v1231z" />
    <glyph glyph-name="daggerdbl" unicode="&#x2021;" 
d="M287 1458h184v-446h274v-164h-274v-658h274v-163h-274v-447h-184v447h-275v163h275v658h-275v164h275v446z" />
    <glyph glyph-name="bullet" unicode="&#x2022;" horiz-adv-x="1024" 
d="M147 729q0 76 29 142.5t78 115.5t115.5 78t142.5 29t142.5 -29t115.5 -78t78 -115.5t29 -142.5t-29 -142.5t-78 -115.5t-115.5 -77.5t-142.5 -28.5t-142.5 28.5t-115.5 77.5t-78 115.5t-29 142.5z" />
    <glyph glyph-name="ellipsis" unicode="&#x2026;" horiz-adv-x="2048" 
d="M1602 209h208v-209h-208v209zM920 209h208v-209h-208v209zM238 209h208v-209h-208v209z" />
    <glyph glyph-name="perthousand" unicode="&#x2030;" horiz-adv-x="1099" 
d="M541 1458h135l-500 -1458h-135zM338 276q0 78 47 123t127 45t127 -45t47 -123v-133q0 -70 -47 -112.5t-127 -42.5t-127 43t-47 112v133zM461 164q0 -23 15.5 -38t35.5 -15t35.5 15t15.5 38v104q0 23 -15.5 38.5t-35.5 15.5t-35.5 -15.5t-15.5 -38.5v-104zM18 1303
q0 78 47.5 122.5t127 44.5t127 -45t47.5 -122v-134q0 -70 -47.5 -112.5t-127 -42.5t-127 43t-47.5 112v134zM141 1190q0 -23 15.5 -38t36 -15t36 15t15.5 38v104q0 23 -15.5 38.5t-36 15.5t-36 -15.5t-15.5 -38.5v-104zM733 276q0 78 47 123t127 45t127 -45t47 -123v-133
q0 -70 -47 -112.5t-127 -42.5t-127 43t-47 112v133zM856 164q0 -23 15.5 -38t36 -15t35.5 15t15 38v104q0 23 -15 38.5t-35.5 15.5t-36 -15.5t-15.5 -38.5v-104z" />
    <glyph glyph-name="guilsinglleft" unicode="&#x2039;" horiz-adv-x="493" 
d="M436 772l-207 -205l207 -205v-208l-416 413l416 414v-209z" />
    <glyph glyph-name="guilsinglright" unicode="&#x203a;" horiz-adv-x="493" 
d="M57 362l207 205l-207 205v209l416 -414l-416 -413v208z" />
    <glyph glyph-name="fraction" unicode="&#x2044;" horiz-adv-x="342" 
d="M557 1493h123l-895 -1528h-123z" />
    <glyph glyph-name="Euro" unicode="&#x20ac;" horiz-adv-x="761" 
d="M552 1278q-95 0 -140 -77t-56 -240h293l-41 -160h-262v-137h227l-41 -162h-176q10 -174 57.5 -249t141.5 -75t143 49v-198q-49 -39 -195 -39t-235.5 117.5t-111.5 394.5h-123l41 162h65q-2 14 -2 18v52q0 48 2 67h-106l41 160h78q39 507 354 507q137 0 192 -47v-194
q-51 51 -146 51z" />
    <glyph glyph-name="afii61289" unicode="&#x2113;" horiz-adv-x="733" 
d="M510 1264q0 82 -17.5 119.5t-58.5 37.5q-86 0 -86 -354v-301q162 272 162 498zM158 358v31q-40 -40 -80 -82l-45 115q86 91 125 143v543q0 236 75 356.5t182 120.5q199 0 199 -336t-266 -694v-123q0 -270 123 -270q53 0 94 49t72 106l76 -84q-95 -237 -283 -237
q-272 0 -272 362z" />
    <glyph glyph-name="trademark" unicode="&#x2122;" horiz-adv-x="2027" 
d="M1649 1323h-4l-281 -709h-84l-279 709h-4v-709h-147v844h233l240 -616l240 616h233v-844h-147v709zM340 1323h-260v135h668v-135h-261v-709h-147v709z" />
    <glyph glyph-name="Omega" unicode="&#x2126;" horiz-adv-x="931" 
d="M68 771q0 313 112 497t296 184t283 -191t99 -457q0 -265 -64.5 -415.5t-95.5 -200.5v-6h181v-182h-353v129q51 66 91 227.5t40 403.5q0 341 -69.5 419t-119.5 78t-88 -36.5t-62.5 -104t-38 -160t-13.5 -252t39 -331t92 -244.5v-129h-352v182h180v6q-63 104 -110 260
t-47 323z" />
    <glyph glyph-name="estimated" unicode="&#x212e;" horiz-adv-x="1787" 
d="M1413 1167q0 29 -18 47q-98 96 -226.5 153.5t-276 57.5t-275.5 -59t-226 -158q-18 -18 -18 -51v-395q0 -14 10 -14h1022q8 0 8 14v405zM383 709q-10 0 -10 -9v-403q0 -27 16 -47q215 -219 510 -219q154 0 291 66.5t235 178.5h117q-111 -131 -280.5 -208.5t-355.5 -77.5
t-335 58t-260.5 157.5t-176 233.5t-64.5 288t64.5 290t176 236.5t261 158.5t320.5 58t320.5 -58t262 -158.5t177 -236.5t64.5 -290v-18h-1333z" />
    <glyph glyph-name="partialdiff" unicode="&#x2202;" horiz-adv-x="839" 
d="M381 190q106 0 139 207t37 301q-12 47 -46 91.5t-80 44.5q-80 0 -124.5 -114.5t-44.5 -250.5q0 -135 30 -207t85 -72h4zM111 1528q117 104 245 104q177 0 291.5 -190t114.5 -599t-104.5 -626t-299.5 -217q-134 0 -213 134t-79 359t96.5 374t226.5 149q72 0 116 -37
t62 -74h2v60q0 192 -64 336.5t-160 144.5q-95 0 -183 -96z" />
    <glyph glyph-name="Delta" unicode="&#x2206;" horiz-adv-x="923" 
d="M680 176l-137 606q-10 57 -36 168t-42 203h-2q-10 -68 -35 -161t-41 -187l-147 -629h440zM877 0h-832v131l311 1327h228l293 -1321v-137z" />
    <glyph glyph-name="product" unicode="&#x220f;" horiz-adv-x="1050" 
d="M870 1227v-1426h-198v1426h-295v-1426h-199v1426h-131v205h954v-205h-131z" />
    <glyph glyph-name="summation" unicode="&#x2211;" horiz-adv-x="800" 
d="M43 -199v154l348 668l-340 651v158h692v-181h-440v-6l305 -575l-348 -652v-6h510v-211h-727z" />
    <glyph glyph-name="minus" unicode="&#x2212;" horiz-adv-x="1228" 
d="M96 600h1037v-164h-1037v164z" />
    <glyph glyph-name="uni2215" unicode="&#x2215;" horiz-adv-x="342" 
d="M557 1493h123l-895 -1528h-123z" />
    <glyph glyph-name="uni2219" unicode="&#x2219;" horiz-adv-x="380" 
d="M59 610.5q0 53.5 39 92t92.5 38.5t92.5 -38.5t39 -92t-39 -92.5t-92.5 -39t-92.5 39t-39 92.5z" />
    <glyph glyph-name="radical" unicode="&#x221a;" horiz-adv-x="899" 
d="M567 -281h-159l-211 908l-111 -43l-31 129l269 104l131 -602q16 -93 30 -199l2 -2q4 31 8.5 89.5t14.5 117.5l244 1503h133z" />
    <glyph glyph-name="infinity" unicode="&#x221e;" horiz-adv-x="1300" 
d="M948 760q-60 0 -112 -44t-75.5 -74t-43.5 -52q81 -103 115 -130.5t62 -36.5t77 -9t90 55t41 124t-41 118t-111 49h-2zM360 414q70 0 123.5 50t106.5 114q-68 93 -118 137.5t-123 44.5t-111.5 -51t-38.5 -125t47 -122t112 -48h2zM1223 592q0 -133 -81 -214t-190 -81
q-76 0 -145.5 38t-151.5 150q-66 -82 -138.5 -135t-177.5 -53t-183 80.5t-78 208t78 209.5t186 82t178 -50.5t135 -136.5q27 29 98.5 108t195.5 79t199 -79t75 -204v-2z" />
    <glyph glyph-name="integral" unicode="&#x222b;" horiz-adv-x="669" 
d="M461 1550q-41 -67 -41 -299t10 -537t10 -485q0 -324 -59 -444q-33 -72 -91.5 -101.5t-124.5 -29.5t-108 27l29 163q40 -16 58 -16q43 0 62 39q38 78 38 271q0 285 -10.5 577t-10.5 443q0 243 21 341t73 174q33 43 87 67.5t110 24.5t92 -18l-22 -158q-25 15 -49 15
q-45 0 -74 -54z" />
    <glyph glyph-name="approxequal" unicode="&#x2248;" horiz-adv-x="821" 
d="M255 434q-42 0 -70.5 -40t-51.5 -87l-76 58q31 82 87.5 134t122.5 52t105.5 -22.5t71.5 -43.5t61 -40t65 -19t62.5 38t53.5 91l76 -59q-29 -78 -82 -133.5t-123 -55.5t-166 66q-39 29 -66.5 45t-69.5 16zM255 745q-42 0 -69.5 -39.5t-52.5 -87.5l-76 60q31 80 87.5 133
t122.5 53t105.5 -24t71.5 -44t61 -38.5t65 -18.5t62.5 37t53.5 90l76 -59q-29 -78 -82 -133.5t-123 -55.5t-166 66q-39 29 -66.5 45t-69.5 16z" />
    <glyph glyph-name="notequal" unicode="&#x2260;" horiz-adv-x="821" 
d="M743 819v-127h-233l-90 -227h323v-125h-364l-70 -176l-94 31l57 145h-196v125h237l88 227h-325v127h366l70 178l94 -32l-57 -146h194z" />
    <glyph glyph-name="lessequal" unicode="&#x2264;" horiz-adv-x="821" 
d="M78 20v132h670v-132h-670zM84 616v138l653 395v-154l-540 -307v-4l540 -309v-154z" />
    <glyph glyph-name="greaterequal" unicode="&#x2265;" horiz-adv-x="821" 
d="M80 20v132h668v-132h-668zM743 754v-136l-653 -397v154l539 309v4l-539 307v154z" />
    <glyph glyph-name="lozenge" unicode="&#x25ca;" horiz-adv-x="897" 
d="M487 1169q-20 71 -30 146h-6q-16 -86 -31 -146l-156 -448l150 -471q10 -35 16 -74t10 -61h11q2 12 5 30.5t7 38t7 36t7 26.5l158 465zM526 -78h-170l-274 793l291 794h170l274 -794z" />
    <glyph glyph-name="nine.alt" unicode="&#xe000;" horiz-adv-x="761" 
d="M279 739q0 -47 30.5 -75.5t71.5 -28.5t71.5 28.5t30.5 75.5v418q0 47 -30.5 76t-71.5 29t-71.5 -29t-30.5 -76v-418zM309 451q-135 0 -194 94q-29 43 -37 86t-8 106v420q0 141 91.5 227t219.5 86t219.5 -86t91.5 -227v-856q0 -139 -91 -226t-220 -87t-220 87t-91 226h209
q0 -45 28.5 -74.5t73.5 -29.5t73.5 29.5t28.5 74.5v197q-101 -47 -174 -47z" />
    <glyph glyph-name="six.alt" unicode="&#xe001;" horiz-adv-x="761" 
d="M279 301q0 -47 30.5 -75.5t71.5 -28.5t71.5 28.5t30.5 75.5v418q0 47 -30.5 75.5t-71.5 28.5t-71.5 -28.5t-30.5 -75.5v-418zM453 1008q134 0 194 -95q29 -43 37 -86t8 -106v-420q0 -139 -91 -226t-220 -87t-220 87t-91 226v856q0 141 91.5 227t219.5 86t219.5 -86
t91.5 -227h-209q0 45 -28.5 75t-73.5 30t-73.5 -30t-28.5 -75v-196q101 47 174 47z" />
    <glyph glyph-name="f_i" unicode="&#xfb01;" horiz-adv-x="833" 
d="M539 1458h209v-209h-209v209zM539 1038h209v-1038h-209v1038zM113 874h-103v164h103v142q0 140 77.5 209t190.5 69h96v-196h-94q-61 0 -61 -72v-152h155v-164h-155v-874h-209v874z" />
    <glyph glyph-name="f_l" unicode="&#xfb02;" horiz-adv-x="833" 
d="M539 1458h209v-1165q0 -59 21.5 -81t80.5 -28v-196q-160 0 -235.5 60t-75.5 231v1179zM113 874h-103v164h103v142q0 140 77.5 209t190.5 69h96v-196h-94q-61 0 -61 -72v-152h155v-164h-155v-874h-209v874z" />
    </font>
</defs>
</svg>
